<?xml version="1.0" encoding="UTF-8" standalone="no"?><svg xmlns="http://www.w3.org/2000/svg" xmlns:xlink="http://www.w3.org/1999/xlink" contentScriptType="application/ecmascript" contentStyleType="text/css" height="1088px" preserveAspectRatio="none" style="width:813px;height:1088px;" version="1.1" viewBox="0 0 813 1088" width="813px" zoomAndPan="magnify"><defs><filter height="300%" id="fszqgc1iluczx" width="300%" x="-1" y="-1"><feGaussianBlur result="blurOut" stdDeviation="2.0"/><feColorMatrix in="blurOut" result="blurOut2" type="matrix" values="0 0 0 0 0 0 0 0 0 0 0 0 0 0 0 0 0 0 .4 0"/><feOffset dx="4.0" dy="4.0" in="blurOut2" result="blurOut3"/><feBlend in="SourceGraphic" in2="blurOut3" mode="normal"/></filter></defs><g><rect fill="#FEFECE" filter="url(#fszqgc1iluczx)" height="34.1328" rx="12.5" ry="12.5" style="stroke: #A80036; stroke-width: 1.5;" width="73" x="10" y="531.9277"/><text fill="#000000" font-family="sans-serif" font-size="12" lengthAdjust="spacingAndGlyphs" textLength="53" x="20" y="553.5293">Locations</text><rect fill="#FEFECE" filter="url(#fszqgc1iluczx)" height="34.1328" rx="12.5" ry="12.5" style="stroke: #A80036; stroke-width: 1.5;" width="90" x="133" y="504.8613"/><text fill="#000000" font-family="sans-serif" font-size="12" lengthAdjust="spacingAndGlyphs" textLength="70" x="143" y="526.4629">Master Data</text><rect fill="#FEFECE" filter="url(#fszqgc1iluczx)" height="48.2656" rx="12.5" ry="12.5" style="stroke: #A80036; stroke-width: 1.5;" width="150" x="273" y="222.998"/><text fill="#000000" font-family="sans-serif" font-size="12" lengthAdjust="spacingAndGlyphs" textLength="126" x="283" y="244.5996">Maintenance Activities</text><text fill="#000000" font-family="sans-serif" font-size="12" lengthAdjust="spacingAndGlyphs" textLength="107" x="283" y="258.7324">(Done only in RMS)</text><rect fill="#FEFECE" filter="url(#fszqgc1iluczx)" height="48.2656" rx="12.5" ry="12.5" style="stroke: #A80036; stroke-width: 1.5;" width="121" x="473" y="20"/><text fill="#000000" font-family="sans-serif" font-size="12" lengthAdjust="spacingAndGlyphs" textLength="97" x="483" y="41.6016">Location Channel</text><text fill="#000000" font-family="sans-serif" font-size="12" lengthAdjust="spacingAndGlyphs" textLength="74" x="483" y="55.7344">Management</text><path d="M423,247.1309 L433,247.1309 C448,247.1309 448,44.1328 463,44.1328 L473,44.1328 " fill="none" style="stroke: #A80036; stroke-width: 1.0;"/><rect fill="#FEFECE" filter="url(#fszqgc1iluczx)" height="34.1328" rx="12.5" ry="12.5" style="stroke: #A80036; stroke-width: 1.5;" width="154" x="473" y="88.2656"/><text fill="#000000" font-family="sans-serif" font-size="12" lengthAdjust="spacingAndGlyphs" textLength="134" x="483" y="109.8672">Customer Visit enabled</text><rect fill="#FEFECE" filter="url(#fszqgc1iluczx)" height="34.1328" rx="12.5" ry="12.5" style="stroke: #A80036; stroke-width: 1.5;" width="57" x="677" y="61.1992"/><text fill="#000000" font-family="sans-serif" font-size="12" lengthAdjust="spacingAndGlyphs" textLength="33" x="687" y="82.8008">Mains</text><path d="M627,105.332 L637,105.332 C652,105.332 652,78.2656 667,78.2656 L677,78.2656 " fill="none" style="stroke: #A80036; stroke-width: 1.0;"/><rect fill="#FEFECE" filter="url(#fszqgc1iluczx)" height="34.1328" rx="12.5" ry="12.5" style="stroke: #A80036; stroke-width: 1.5;" width="55" x="677" y="115.332"/><text fill="#000000" font-family="sans-serif" font-size="12" lengthAdjust="spacingAndGlyphs" textLength="35" x="687" y="136.9336">Locals</text><path d="M627,105.332 L637,105.332 C652,105.332 652,132.3984 667,132.3984 L677,132.3984 " fill="none" style="stroke: #A80036; stroke-width: 1.0;"/><path d="M423,247.1309 L433,247.1309 C448,247.1309 448,105.332 463,105.332 L473,105.332 " fill="none" style="stroke: #A80036; stroke-width: 1.0;"/><rect fill="#FEFECE" filter="url(#fszqgc1iluczx)" height="48.2656" rx="12.5" ry="12.5" style="stroke: #A80036; stroke-width: 1.5;" width="129" x="473" y="297.7305"/><text fill="#000000" font-family="sans-serif" font-size="12" lengthAdjust="spacingAndGlyphs" textLength="105" x="483" y="319.332">Customer Visit not</text><text fill="#000000" font-family="sans-serif" font-size="12" lengthAdjust="spacingAndGlyphs" textLength="47" x="483" y="333.4648">enabled</text><rect fill="#FEFECE" filter="url(#fszqgc1iluczx)" height="34.1328" rx="12.5" ry="12.5" style="stroke: #A80036; stroke-width: 1.5;" width="43" x="652" y="169.4648"/><text fill="#000000" font-family="sans-serif" font-size="12" lengthAdjust="spacingAndGlyphs" textLength="19" x="662" y="191.0664">PFS</text><path d="M602,321.8633 L612,321.8633 C627,321.8633 627,186.5313 642,186.5313 L652,186.5313 " fill="none" style="stroke: #A80036; stroke-width: 1.0;"/><rect fill="#FEFECE" filter="url(#fszqgc1iluczx)" height="34.1328" rx="12.5" ry="12.5" style="stroke: #A80036; stroke-width: 1.5;" width="128" x="652" y="223.5977"/><text fill="#000000" font-family="sans-serif" font-size="12" lengthAdjust="spacingAndGlyphs" textLength="108" x="662" y="245.1992">Restaurants / Cafe</text><path d="M602,321.8633 L612,321.8633 C627,321.8633 627,240.6641 642,240.6641 L652,240.6641 " fill="none" style="stroke: #A80036; stroke-width: 1.0;"/><rect fill="#FEFECE" filter="url(#fszqgc1iluczx)" height="34.1328" rx="12.5" ry="12.5" style="stroke: #A80036; stroke-width: 1.5;" width="125" x="652" y="277.7305"/><text fill="#000000" font-family="sans-serif" font-size="12" lengthAdjust="spacingAndGlyphs" textLength="105" x="662" y="299.332">Store Maintanence</text><path d="M602,321.8633 L612,321.8633 C627,321.8633 627,294.7969 642,294.7969 L652,294.7969 " fill="none" style="stroke: #A80036; stroke-width: 1.0;"/><rect fill="#FEFECE" filter="url(#fszqgc1iluczx)" height="34.1328" rx="12.5" ry="12.5" style="stroke: #A80036; stroke-width: 1.5;" width="131" x="652" y="331.8633"/><text fill="#000000" font-family="sans-serif" font-size="12" lengthAdjust="spacingAndGlyphs" textLength="111" x="662" y="353.4648">Depot Maintenance</text><path d="M602,321.8633 L612,321.8633 C627,321.8633 627,348.9297 642,348.9297 L652,348.9297 " fill="none" style="stroke: #A80036; stroke-width: 1.0;"/><rect fill="#FEFECE" filter="url(#fszqgc1iluczx)" height="34.1328" rx="12.5" ry="12.5" style="stroke: #A80036; stroke-width: 1.5;" width="150" x="652" y="385.9961"/><text fill="#000000" font-family="sans-serif" font-size="12" lengthAdjust="spacingAndGlyphs" textLength="126" x="662" y="407.5977">Store Support Centres</text><path d="M602,321.8633 L612,321.8633 C627,321.8633 627,403.0625 642,403.0625 L652,403.0625 " fill="none" style="stroke: #A80036; stroke-width: 1.0;"/><rect fill="#FEFECE" filter="url(#fszqgc1iluczx)" height="34.1328" rx="12.5" ry="12.5" style="stroke: #A80036; stroke-width: 1.5;" width="91" x="652" y="440.1289"/><text fill="#000000" font-family="sans-serif" font-size="12" lengthAdjust="spacingAndGlyphs" textLength="67" x="662" y="461.7305">Dark Stores</text><path d="M602,321.8633 L612,321.8633 C627,321.8633 627,457.1953 642,457.1953 L652,457.1953 " fill="none" style="stroke: #A80036; stroke-width: 1.0;"/><path d="M423,247.1309 L433,247.1309 C448,247.1309 448,321.8633 463,321.8633 L473,321.8633 " fill="none" style="stroke: #A80036; stroke-width: 1.0;"/><path d="M223,521.9277 L233,521.9277 C248,521.9277 248,247.1309 263,247.1309 L273,247.1309 " fill="none" style="stroke: #A80036; stroke-width: 1.0;"/><rect fill="#FEFECE" filter="url(#fszqgc1iluczx)" height="34.1328" rx="12.5" ry="12.5" style="stroke: #A80036; stroke-width: 1.5;" width="154" x="273" y="291.2637"/><text fill="#000000" font-family="sans-serif" font-size="12" lengthAdjust="spacingAndGlyphs" textLength="134" x="283" y="312.8652">Publish events to Kafka</text><path d="M223,521.9277 L233,521.9277 C248,521.9277 248,308.3301 263,308.3301 L273,308.3301 " fill="none" style="stroke: #A80036; stroke-width: 1.0;"/><rect fill="#FEFECE" filter="url(#fszqgc1iluczx)" height="48.2656" rx="12.5" ry="12.5" style="stroke: #A80036; stroke-width: 1.5;" width="145" x="273" y="622.5273"/><text fill="#000000" font-family="sans-serif" font-size="12" lengthAdjust="spacingAndGlyphs" textLength="121" x="283" y="644.1289">Master Location Data</text><text fill="#000000" font-family="sans-serif" font-size="12" lengthAdjust="spacingAndGlyphs" textLength="77" x="283" y="658.2617">(Workstream)</text><rect fill="#FEFECE" filter="url(#fszqgc1iluczx)" height="34.1328" rx="12.5" ry="12.5" style="stroke: #A80036; stroke-width: 1.5;" width="57" x="468" y="494.2617"/><text fill="#000000" font-family="sans-serif" font-size="12" lengthAdjust="spacingAndGlyphs" textLength="33" x="478" y="515.8633">Argos</text><path d="M418,646.6602 L428,646.6602 C443,646.6602 443,511.3281 458,511.3281 L468,511.3281 " fill="none" style="stroke: #A80036; stroke-width: 1.0;"/><rect fill="#FEFECE" filter="url(#fszqgc1iluczx)" height="34.1328" rx="12.5" ry="12.5" style="stroke: #A80036; stroke-width: 1.5;" width="62" x="468" y="548.3945"/><text fill="#000000" font-family="sans-serif" font-size="12" lengthAdjust="spacingAndGlyphs" textLength="42" x="478" y="569.9961">Habitat</text><path d="M418,646.6602 L428,646.6602 C443,646.6602 443,565.4609 458,565.4609 L468,565.4609 " fill="none" style="stroke: #A80036; stroke-width: 1.0;"/><rect fill="#FEFECE" filter="url(#fszqgc1iluczx)" height="34.1328" rx="12.5" ry="12.5" style="stroke: #A80036; stroke-width: 1.5;" width="110" x="468" y="602.5273"/><text fill="#000000" font-family="sans-serif" font-size="12" lengthAdjust="spacingAndGlyphs" textLength="90" x="478" y="624.1289">Pharmacies123</text><path d="M418,646.6602 L428,646.6602 C443,646.6602 443,619.5938 458,619.5938 L468,619.5938 " fill="none" style="stroke: #A80036; stroke-width: 1.0;"/><rect fill="#FEFECE" filter="url(#fszqgc1iluczx)" height="34.1328" rx="12.5" ry="12.5" style="stroke: #A80036; stroke-width: 1.5;" width="54" x="468" y="656.6602"/><text fill="#000000" font-family="sans-serif" font-size="12" lengthAdjust="spacingAndGlyphs" textLength="34" x="478" y="678.2617">Banks</text><path d="M418,646.6602 L428,646.6602 C443,646.6602 443,673.7266 458,673.7266 L468,673.7266 " fill="none" style="stroke: #A80036; stroke-width: 1.0;"/><rect fill="#FEFECE" filter="url(#fszqgc1iluczx)" height="34.1328" rx="12.5" ry="12.5" style="stroke: #A80036; stroke-width: 1.5;" width="94" x="468" y="710.793"/><text fill="#000000" font-family="sans-serif" font-size="12" lengthAdjust="spacingAndGlyphs" textLength="74" x="478" y="732.3945">Travelmoney</text><path d="M418,646.6602 L428,646.6602 C443,646.6602 443,727.8594 458,727.8594 L468,727.8594 " fill="none" style="stroke: #A80036; stroke-width: 1.0;"/><rect fill="#FEFECE" filter="url(#fszqgc1iluczx)" height="34.1328" rx="12.5" ry="12.5" style="stroke: #A80036; stroke-width: 1.5;" width="68" x="468" y="764.9258"/><text fill="#000000" font-family="sans-serif" font-size="12" lengthAdjust="spacingAndGlyphs" textLength="48" x="478" y="786.5273">Partners</text><path d="M418,646.6602 L428,646.6602 C443,646.6602 443,781.9922 458,781.9922 L468,781.9922 " fill="none" style="stroke: #A80036; stroke-width: 1.0;"/><path d="M223,521.9277 L233,521.9277 C248,521.9277 248,646.6602 263,646.6602 L273,646.6602 " fill="none" style="stroke: #A80036; stroke-width: 1.0;"/><rect fill="#FEFECE" filter="url(#fszqgc1iluczx)" height="34.1328" rx="12.5" ry="12.5" style="stroke: #A80036; stroke-width: 1.5;" width="101" x="273" y="690.793"/><text fill="#000000" font-family="sans-serif" font-size="12" lengthAdjust="spacingAndGlyphs" textLength="77" x="283" y="712.3945">Turn-off RMS</text><path d="M223,521.9277 L233,521.9277 C248,521.9277 248,707.8594 263,707.8594 L273,707.8594 " fill="none" style="stroke: #A80036; stroke-width: 1.0;"/><rect fill="#FEFECE" filter="url(#fszqgc1iluczx)" height="34.1328" rx="12.5" ry="12.5" style="stroke: #A80036; stroke-width: 1.5;" width="151" x="273" y="744.9258"/><text fill="#000000" font-family="sans-serif" font-size="12" lengthAdjust="spacingAndGlyphs" textLength="131" x="283" y="766.5273">Hierarchy Maintenance</text><path d="M223,521.9277 L233,521.9277 C248,521.9277 248,761.9922 263,761.9922 L273,761.9922 " fill="none" style="stroke: #A80036; stroke-width: 1.0;"/><rect fill="#FEFECE" filter="url(#fszqgc1iluczx)" height="48.2656" rx="12.5" ry="12.5" style="stroke: #A80036; stroke-width: 1.5;" width="150" x="273" y="799.0586"/><text fill="#000000" font-family="sans-serif" font-size="12" lengthAdjust="spacingAndGlyphs" textLength="126" x="283" y="820.6602">Suport Locations (SSC,</text><text fill="#000000" font-family="sans-serif" font-size="12" lengthAdjust="spacingAndGlyphs" textLength="57" x="283" y="834.793">Recycling)</text><path d="M223,521.9277 L233,521.9277 C248,521.9277 248,823.1914 263,823.1914 L273,823.1914 " fill="none" style="stroke: #A80036; stroke-width: 1.0;"/><rect fill="#FEFECE" filter="url(#fszqgc1iluczx)" height="34.1328" rx="12.5" ry="12.5" style="stroke: #A80036; stroke-width: 1.5;" width="102" x="273" y="867.3242"/><text fill="#000000" font-family="sans-serif" font-size="12" lengthAdjust="spacingAndGlyphs" textLength="78" x="283" y="888.9258">Left out UDAs</text><path d="M223,521.9277 L233,521.9277 C248,521.9277 248,884.3906 263,884.3906 L273,884.3906 " fill="none" style="stroke: #A80036; stroke-width: 1.0;"/><rect fill="#FEFECE" filter="url(#fszqgc1iluczx)" height="34.1328" rx="12.5" ry="12.5" style="stroke: #A80036; stroke-width: 1.5;" width="109" x="273" y="921.457"/><text fill="#000000" font-family="sans-serif" font-size="12" lengthAdjust="spacingAndGlyphs" textLength="89" x="283" y="943.0586">Reference Data</text><rect fill="#FEFECE" filter="url(#fszqgc1iluczx)" height="34.1328" rx="12.5" ry="12.5" style="stroke: #A80036; stroke-width: 1.5;" width="49" x="432" y="921.457"/><text fill="#000000" font-family="sans-serif" font-size="12" lengthAdjust="spacingAndGlyphs" textLength="25" x="442" y="943.0586">UDA</text><path d="M382,938.5234 L392,938.5234 C407,938.5234 407,938.5234 422,938.5234 L432,938.5234 " fill="none" style="stroke: #A80036; stroke-width: 1.0;"/><path d="M223,521.9277 L233,521.9277 C248,521.9277 248,938.5234 263,938.5234 L273,938.5234 " fill="none" style="stroke: #A80036; stroke-width: 1.0;"/><rect fill="#FEFECE" filter="url(#fszqgc1iluczx)" height="34.1328" rx="12.5" ry="12.5" style="stroke: #A80036; stroke-width: 1.5;" width="150" x="273" y="982.6563"/><text fill="#000000" font-family="sans-serif" font-size="12" lengthAdjust="spacingAndGlyphs" textLength="130" x="283" y="1004.2578">Store Opening process</text><rect fill="#FEFECE" filter="url(#fszqgc1iluczx)" height="48.2656" rx="12.5" ry="12.5" style="stroke: #A80036; stroke-width: 1.5;" width="169" x="473" y="975.5898"/><text fill="#000000" font-family="sans-serif" font-size="12" lengthAdjust="spacingAndGlyphs" textLength="149" x="483" y="997.1914">Shift downstream systems</text><text fill="#000000" font-family="sans-serif" font-size="12" lengthAdjust="spacingAndGlyphs" textLength="48" x="483" y="1011.3242">to Kafka</text><rect fill="#FEFECE" filter="url(#fszqgc1iluczx)" height="34.1328" rx="12.5" ry="12.5" style="stroke: #A80036; stroke-width: 1.5;" width="32" x="692" y="982.6563"/><text fill="#000000" font-family="sans-serif" font-size="12" lengthAdjust="spacingAndGlyphs" textLength="12" x="702" y="1004.2578">yy</text><path d="M642,999.7227 L652,999.7227 C667,999.7227 667,999.7227 682,999.7227 L692,999.7227 " fill="none" style="stroke: #A80036; stroke-width: 1.0;"/><path d="M423,999.7227 L433,999.7227 C448,999.7227 448,999.7227 463,999.7227 L473,999.7227 " fill="none" style="stroke: #A80036; stroke-width: 1.0;"/><path d="M223,521.9277 L233,521.9277 C248,521.9277 248,999.7227 263,999.7227 L273,999.7227 " fill="none" style="stroke: #A80036; stroke-width: 1.0;"/><path d="M83,548.9941 L93,548.9941 C108,548.9941 108,521.9277 123,521.9277 L133,521.9277 " fill="none" style="stroke: #A80036; stroke-width: 1.0;"/><rect fill="#FEFECE" filter="url(#fszqgc1iluczx)" height="34.1328" rx="12.5" ry="12.5" style="stroke: #A80036; stroke-width: 1.5;" width="149" x="133" y="1043.8555"/><text fill="#000000" font-family="sans-serif" font-size="12" lengthAdjust="spacingAndGlyphs" textLength="129" x="143" y="1065.457">Data Services Platform</text><path d="M83,548.9941 L93,548.9941 C108,548.9941 108,1060.9219 123,1060.9219 L133,1060.9219 " fill="none" style="stroke: #A80036; stroke-width: 1.0;"/><!--
--></g></svg>