<?xml version="1.0" encoding="UTF-8" standalone="no"?><svg xmlns="http://www.w3.org/2000/svg" xmlns:xlink="http://www.w3.org/1999/xlink" contentScriptType="application/ecmascript" contentStyleType="text/css" height="227px" preserveAspectRatio="none" style="width:451px;height:227px;" version="1.1" viewBox="0 0 451 227" width="451px" zoomAndPan="magnify"><defs><filter height="300%" id="fn7w07p0atsv0" width="300%" x="-1" y="-1"><feGaussianBlur result="blurOut" stdDeviation="2.0"/><feColorMatrix in="blurOut" result="blurOut2" type="matrix" values="0 0 0 0 0 0 0 0 0 0 0 0 0 0 0 0 0 0 .4 0"/><feOffset dx="4.0" dy="4.0" in="blurOut2" result="blurOut3"/><feBlend in="SourceGraphic" in2="blurOut3" mode="normal"/></filter></defs><g><rect fill="#FEFECE" filter="url(#fn7w07p0atsv0)" height="48.2656" rx="12.5" ry="12.5" style="stroke: #A80036; stroke-width: 1.5;" width="156" x="10" y="94.1328"/><text fill="#000000" font-family="sans-serif" font-size="12" lengthAdjust="spacingAndGlyphs" textLength="132" x="20" y="115.7344">AAS:Ability to construct</text><text fill="#000000" font-family="sans-serif" font-size="12" lengthAdjust="spacingAndGlyphs" textLength="116" x="20" y="129.8672">different hierarchies</text><rect fill="#FEFECE" filter="url(#fn7w07p0atsv0)" height="34.1328" rx="12.5" ry="12.5" style="stroke: #A80036; stroke-width: 1.5;" width="125" x="216" y="20"/><text fill="#000000" font-family="sans-serif" font-size="12" lengthAdjust="spacingAndGlyphs" textLength="105" x="226" y="41.6016">BE: Merchandising</text><path d="M166,118.2656 L176,118.2656 C191,118.2656 191,37.0664 206,37.0664 L216,37.0664 " fill="none" style="stroke: #A80036; stroke-width: 1.0;"/><rect fill="#FEFECE" filter="url(#fn7w07p0atsv0)" height="34.1328" rx="12.5" ry="12.5" style="stroke: #A80036; stroke-width: 1.5;" width="85" x="216" y="74.1328"/><text fill="#000000" font-family="sans-serif" font-size="12" lengthAdjust="spacingAndGlyphs" textLength="65" x="226" y="95.7344">BE: Finance</text><path d="M166,118.2656 L176,118.2656 C191,118.2656 191,91.1992 206,91.1992 L216,91.1992 " fill="none" style="stroke: #A80036; stroke-width: 1.0;"/><rect fill="#FEFECE" filter="url(#fn7w07p0atsv0)" height="34.1328" rx="12.5" ry="12.5" style="stroke: #A80036; stroke-width: 1.5;" width="63" x="216" y="155.332"/><text fill="#000000" font-family="sans-serif" font-size="12" lengthAdjust="spacingAndGlyphs" textLength="43" x="226" y="176.9336">Catalog</text><rect fill="#FEFECE" filter="url(#fn7w07p0atsv0)" height="34.1328" rx="12.5" ry="12.5" style="stroke: #A80036; stroke-width: 1.5;" width="78" x="329" y="128.2656"/><text fill="#000000" font-family="sans-serif" font-size="12" lengthAdjust="spacingAndGlyphs" textLength="58" x="339" y="149.8672">BE: Online</text><path d="M279,172.3984 L289,172.3984 C304,172.3984 304,145.332 319,145.332 L329,145.332 " fill="none" style="stroke: #A80036; stroke-width: 1.0;"/><rect fill="#FEFECE" filter="url(#fn7w07p0atsv0)" height="34.1328" rx="12.5" ry="12.5" style="stroke: #A80036; stroke-width: 1.5;" width="111" x="329" y="182.3984"/><text fill="#000000" font-family="sans-serif" font-size="12" lengthAdjust="spacingAndGlyphs" textLength="91" x="339" y="204">B2B: Customers</text><path d="M279,172.3984 L289,172.3984 C304,172.3984 304,199.4648 319,199.4648 L329,199.4648 " fill="none" style="stroke: #A80036; stroke-width: 1.0;"/><path d="M166,118.2656 L176,118.2656 C191,118.2656 191,172.3984 206,172.3984 L216,172.3984 " fill="none" style="stroke: #A80036; stroke-width: 1.0;"/><!--
--></g></svg>