<?xml version="1.0" encoding="UTF-8" standalone="no"?><svg xmlns="http://www.w3.org/2000/svg" xmlns:xlink="http://www.w3.org/1999/xlink" contentScriptType="application/ecmascript" contentStyleType="text/css" height="303px" preserveAspectRatio="none" style="width:1127px;height:303px;" version="1.1" viewBox="0 0 1127 303" width="1127px" zoomAndPan="magnify"><defs><filter height="300%" id="f91mhvzpiggmc" width="300%" x="-1" y="-1"><feGaussianBlur result="blurOut" stdDeviation="2.0"/><feColorMatrix in="blurOut" result="blurOut2" type="matrix" values="0 0 0 0 0 0 0 0 0 0 0 0 0 0 0 0 0 0 .4 0"/><feOffset dx="4.0" dy="4.0" in="blurOut2" result="blurOut3"/><feBlend in="SourceGraphic" in2="blurOut3" mode="normal"/></filter></defs><g><rect fill="#E6E6FA" height="28.8438" style="stroke: #00008B; stroke-width: 2.0;" width="460" x="282.5" y="12"/><text fill="#000080" font-family="sans-serif" font-size="16" lengthAdjust="spacingAndGlyphs" textLength="444" x="290.5" y="32.4688">Purpose of Business Epics and Architectural Steel Thread</text><rect fill="#FEFECE" filter="url(#f91mhvzpiggmc)" height="34.1328" rx="12.5" ry="12.5" style="stroke: #A80036; stroke-width: 1.5;" width="122" x="665" y="156.2422"/><text fill="#000000" font-family="sans-serif" font-size="12" font-weight="bold" lengthAdjust="spacingAndGlyphs" textLength="102" x="675" y="177.8438">Problem at hand</text><rect fill="#FEFECE" filter="url(#f91mhvzpiggmc)" height="34.1328" rx="12.5" ry="12.5" style="stroke: #A80036; stroke-width: 1.5;" width="64" x="837" y="122.1094"/><text fill="#000000" font-family="sans-serif" font-size="12" lengthAdjust="spacingAndGlyphs" textLength="44" x="847" y="143.7109">Solution</text><rect fill="#FEFECE" filter="url(#f91mhvzpiggmc)" height="48.2656" rx="12.5" ry="12.5" style="stroke: #A80036; stroke-width: 1.5;" width="149" x="951" y="73.8438"/><text fill="#000000" font-family="sans-serif" font-size="12" lengthAdjust="spacingAndGlyphs" textLength="117" x="961" y="95.4453">Architetcure team to</text><text fill="#000000" font-family="sans-serif" font-size="12" lengthAdjust="spacingAndGlyphs" textLength="129" x="961" y="109.5781">identify Business Epics</text><path d="M901,139.1758 L911,139.1758 C926,139.1758 926,97.9766 941,97.9766 L951,97.9766 " fill="none" style="stroke: #A80036; stroke-width: 1.0;"/><rect fill="#FEFECE" filter="url(#f91mhvzpiggmc)" height="62.3984" rx="12.5" ry="12.5" style="stroke: #A80036; stroke-width: 1.5;" width="165" x="951" y="142.1094"/><text fill="#000000" font-family="sans-serif" font-size="12" lengthAdjust="spacingAndGlyphs" textLength="141" x="961" y="163.7109">Architetcural steelthread</text><text fill="#000000" font-family="sans-serif" font-size="12" lengthAdjust="spacingAndGlyphs" textLength="122" x="961" y="177.8438">to complete business</text><text fill="#000000" font-family="sans-serif" font-size="12" lengthAdjust="spacingAndGlyphs" textLength="30" x="961" y="191.9766">epics</text><path d="M901,139.1758 L911,139.1758 C926,139.1758 926,173.3086 941,173.3086 L951,173.3086 " fill="none" style="stroke: #A80036; stroke-width: 1.0;"/><path d="M787,173.3086 L797,173.3086 C812,173.3086 812,139.1758 827,139.1758 L837,139.1758 " fill="none" style="stroke: #A80036; stroke-width: 1.0;"/><rect fill="#FEFECE" filter="url(#f91mhvzpiggmc)" height="48.2656" rx="12.5" ry="12.5" style="stroke: #A80036; stroke-width: 1.5;" width="135" x="837" y="224.5078"/><text fill="#000000" font-family="sans-serif" font-size="12" lengthAdjust="spacingAndGlyphs" textLength="111" x="847" y="246.1094">Aligning teams with</text><text fill="#000000" font-family="sans-serif" font-size="12" lengthAdjust="spacingAndGlyphs" textLength="55" x="847" y="260.2422">approach</text><path d="M787,173.3086 L797,173.3086 C812,173.3086 812,248.6406 827,248.6406 L837,248.6406 " fill="none" style="stroke: #A80036; stroke-width: 1.0;"/><rect fill="#FEFECE" filter="url(#f91mhvzpiggmc)" height="62.3984" rx="12.5" ry="12.5" style="stroke: #A80036; stroke-width: 1.5;" width="167" x="448" y="142.1094"/><text fill="#000000" font-family="sans-serif" font-size="12" lengthAdjust="spacingAndGlyphs" textLength="134" x="458" y="163.7109">Domain level scope not</text><text fill="#000000" font-family="sans-serif" font-size="12" lengthAdjust="spacingAndGlyphs" textLength="143" x="458" y="177.8438">completely understood -</text><text fill="#000000" font-family="sans-serif" font-size="12" lengthAdjust="spacingAndGlyphs" textLength="111" x="458" y="191.9766">What is the full pie?</text><rect fill="#FEFECE" filter="url(#f91mhvzpiggmc)" height="76.5313" rx="12.5" ry="12.5" style="stroke: #A80036; stroke-width: 1.5;" width="168" x="230" y="135.043"/><text fill="#000000" font-family="sans-serif" font-size="12" lengthAdjust="spacingAndGlyphs" textLength="137" x="240" y="156.6445">Workstream level scope</text><text fill="#000000" font-family="sans-serif" font-size="12" lengthAdjust="spacingAndGlyphs" textLength="84" x="240" y="170.7773">not completely</text><text fill="#000000" font-family="sans-serif" font-size="12" lengthAdjust="spacingAndGlyphs" textLength="144" x="240" y="184.9102">understood - What is the</text><text fill="#000000" font-family="sans-serif" font-size="12" lengthAdjust="spacingAndGlyphs" textLength="96" x="240" y="199.043">share of the pie?</text><rect fill="#FEFECE" filter="url(#f91mhvzpiggmc)" height="62.3984" rx="12.5" ry="12.5" style="stroke: #A80036; stroke-width: 1.5;" width="167" x="13" y="53.8438"/><text fill="#000000" font-family="sans-serif" font-size="12" lengthAdjust="spacingAndGlyphs" textLength="98" x="23" y="75.4453">Architectural and</text><text fill="#000000" font-family="sans-serif" font-size="12" lengthAdjust="spacingAndGlyphs" textLength="147" x="23" y="89.5781">Engineering oprtimization</text><text fill="#000000" font-family="sans-serif" font-size="12" lengthAdjust="spacingAndGlyphs" textLength="83" x="23" y="103.7109">not happening</text><path d="M230,173.3086 L220,173.3086 C205,173.3086 205,85.043 190,85.043 L180,85.043 " fill="none" style="stroke: #A80036; stroke-width: 1.0;"/><rect fill="#FEFECE" filter="url(#f91mhvzpiggmc)" height="48.2656" rx="12.5" ry="12.5" style="stroke: #A80036; stroke-width: 1.5;" width="157" x="23" y="136.2422"/><text fill="#000000" font-family="sans-serif" font-size="12" lengthAdjust="spacingAndGlyphs" textLength="121" x="33" y="157.8438">Incremental business</text><text fill="#000000" font-family="sans-serif" font-size="12" lengthAdjust="spacingAndGlyphs" textLength="137" x="33" y="171.9766">value not demonstrated</text><path d="M230,173.3086 L220,173.3086 C205,173.3086 205,160.375 190,160.375 L180,160.375 " fill="none" style="stroke: #A80036; stroke-width: 1.0;"/><rect fill="#FEFECE" filter="url(#f91mhvzpiggmc)" height="34.1328" rx="12.5" ry="12.5" style="stroke: #A80036; stroke-width: 1.5;" width="122" x="58" y="204.5078"/><text fill="#000000" font-family="sans-serif" font-size="12" lengthAdjust="spacingAndGlyphs" textLength="98" x="68" y="226.1094">Velocity not clear</text><path d="M230,173.3086 L220,173.3086 C205,173.3086 205,221.5742 190,221.5742 L180,221.5742 " fill="none" style="stroke: #A80036; stroke-width: 1.0;"/><rect fill="#FEFECE" filter="url(#f91mhvzpiggmc)" height="34.1328" rx="12.5" ry="12.5" style="stroke: #A80036; stroke-width: 1.5;" width="170" x="10" y="258.6406"/><text fill="#000000" font-family="sans-serif" font-size="12" lengthAdjust="spacingAndGlyphs" textLength="150" x="20" y="280.2422">Velocity is not fast enough</text><path d="M230,173.3086 L220,173.3086 C205,173.3086 205,275.707 190,275.707 L180,275.707 " fill="none" style="stroke: #A80036; stroke-width: 1.0;"/><path d="M448,173.3086 L438,173.3086 C423,173.3086 423,173.3086 408,173.3086 L398,173.3086 " fill="none" style="stroke: #A80036; stroke-width: 1.0;"/><path d="M665,173.3086 L655,173.3086 C640,173.3086 640,173.3086 625,173.3086 L615,173.3086 " fill="none" style="stroke: #A80036; stroke-width: 1.0;"/><!--
--></g></svg>