<?xml version="1.0" encoding="UTF-8" standalone="no"?><svg xmlns="http://www.w3.org/2000/svg" xmlns:xlink="http://www.w3.org/1999/xlink" contentScriptType="application/ecmascript" contentStyleType="text/css" height="926px" preserveAspectRatio="none" style="width:1020px;height:926px;" version="1.1" viewBox="0 0 1020 926" width="1020px" zoomAndPan="magnify"><defs><filter height="300%" id="fmh0vyqzd6i6b" width="300%" x="-1" y="-1"><feGaussianBlur result="blurOut" stdDeviation="2.0"/><feColorMatrix in="blurOut" result="blurOut2" type="matrix" values="0 0 0 0 0 0 0 0 0 0 0 0 0 0 0 0 0 0 .4 0"/><feOffset dx="4.0" dy="4.0" in="blurOut2" result="blurOut3"/><feBlend in="SourceGraphic" in2="blurOut3" mode="normal"/></filter></defs><g><rect fill="#E6E6FA" height="28.8438" style="stroke: #00008B; stroke-width: 2.0;" width="460" x="229" y="12"/><text fill="#000080" font-family="sans-serif" font-size="16" lengthAdjust="spacingAndGlyphs" textLength="444" x="237" y="32.4688">Purpose of Business Epics and Architectural Steel Thread</text><rect fill="#FEFECE" filter="url(#fmh0vyqzd6i6b)" height="43.5547" rx="12.5" ry="12.5" style="stroke: #A80036; stroke-width: 1.5;" width="106" x="341" y="462.7949"/><text fill="#000000" font-family="sans-serif" font-size="20" font-weight="bold" lengthAdjust="spacingAndGlyphs" textLength="79" x="358" y="492.1309">Product</text><rect fill="#FEFECE" filter="url(#fmh0vyqzd6i6b)" height="34.1328" rx="12.5" ry="12.5" style="stroke: #A80036; stroke-width: 1.5;" width="107" x="497" y="80.9102"/><text fill="#000000" font-family="sans-serif" font-size="12" lengthAdjust="spacingAndGlyphs" textLength="87" x="507" y="102.5117">New SKU Setup</text><rect fill="#FEFECE" filter="url(#fmh0vyqzd6i6b)" height="34.1328" rx="12.5" ry="12.5" style="stroke: #A80036; stroke-width: 1.5;" width="138" x="654" y="80.9102"/><text fill="#000000" font-family="sans-serif" font-size="12" lengthAdjust="spacingAndGlyphs" textLength="118" x="664" y="102.5117">Access management</text><rect fill="#FEFECE" filter="url(#fmh0vyqzd6i6b)" height="34.1328" rx="12.5" ry="12.5" style="stroke: #A80036; stroke-width: 1.5;" width="102" x="842" y="53.8438"/><text fill="#000000" font-family="sans-serif" font-size="12" lengthAdjust="spacingAndGlyphs" textLength="82" x="852" y="75.4453">External users</text><path d="M792,97.9766 L802,97.9766 C817,97.9766 817,70.9102 832,70.9102 L842,70.9102 " fill="none" style="stroke: #A80036; stroke-width: 1.0;"/><rect fill="#FEFECE" filter="url(#fmh0vyqzd6i6b)" height="34.1328" rx="12.5" ry="12.5" style="stroke: #A80036; stroke-width: 1.5;" width="98" x="842" y="107.9766"/><text fill="#000000" font-family="sans-serif" font-size="12" lengthAdjust="spacingAndGlyphs" textLength="78" x="852" y="129.5781">Internal users</text><path d="M792,97.9766 L802,97.9766 C817,97.9766 817,125.043 832,125.043 L842,125.043 " fill="none" style="stroke: #A80036; stroke-width: 1.0;"/><path d="M604,97.9766 L614,97.9766 C629,97.9766 629,97.9766 644,97.9766 L654,97.9766 " fill="none" style="stroke: #A80036; stroke-width: 1.0;"/><path d="M447,484.5723 L457,484.5723 C472,484.5723 472,97.9766 487,97.9766 L497,97.9766 " fill="none" style="stroke: #A80036; stroke-width: 1.0;"/><rect fill="#FEFECE" filter="url(#fmh0vyqzd6i6b)" height="34.1328" rx="12.5" ry="12.5" style="stroke: #A80036; stroke-width: 1.5;" width="118" x="497" y="202.709"/><text fill="#000000" font-family="sans-serif" font-size="12" lengthAdjust="spacingAndGlyphs" textLength="98" x="507" y="224.3105">SKU Maintenance</text><rect fill="#FEFECE" filter="url(#fmh0vyqzd6i6b)" height="34.1328" rx="12.5" ry="12.5" style="stroke: #A80036; stroke-width: 1.5;" width="138" x="665" y="189.1758"/><text fill="#000000" font-family="sans-serif" font-size="12" lengthAdjust="spacingAndGlyphs" textLength="118" x="675" y="210.7773">Access management</text><rect fill="#FEFECE" filter="url(#fmh0vyqzd6i6b)" height="34.1328" rx="12.5" ry="12.5" style="stroke: #A80036; stroke-width: 1.5;" width="106" x="853" y="162.1094"/><text fill="#000000" font-family="sans-serif" font-size="12" lengthAdjust="spacingAndGlyphs" textLength="82" x="863" y="183.7109">External users</text><path d="M803,206.2422 L813,206.2422 C828,206.2422 828,179.1758 843,179.1758 L853,179.1758 " fill="none" style="stroke: #A80036; stroke-width: 1.0;"/><rect fill="#FEFECE" filter="url(#fmh0vyqzd6i6b)" height="34.1328" rx="12.5" ry="12.5" style="stroke: #A80036; stroke-width: 1.5;" width="98" x="853" y="216.2422"/><text fill="#000000" font-family="sans-serif" font-size="12" lengthAdjust="spacingAndGlyphs" textLength="78" x="863" y="237.8438">Internal users</text><path d="M803,206.2422 L813,206.2422 C828,206.2422 828,233.3086 843,233.3086 L853,233.3086 " fill="none" style="stroke: #A80036; stroke-width: 1.0;"/><path d="M615,219.7754 L625,219.7754 C640,219.7754 640,206.2422 655,206.2422 L665,206.2422 " fill="none" style="stroke: #A80036; stroke-width: 1.0;"/><rect fill="#FEFECE" filter="url(#fmh0vyqzd6i6b)" height="34.1328" rx="12.5" ry="12.5" style="stroke: #A80036; stroke-width: 1.5;" width="88" x="665" y="243.3086"/><text fill="#000000" font-family="sans-serif" font-size="12" lengthAdjust="spacingAndGlyphs" textLength="68" x="675" y="264.9102">SKU Update</text><path d="M615,219.7754 L625,219.7754 C640,219.7754 640,260.375 655,260.375 L665,260.375 " fill="none" style="stroke: #A80036; stroke-width: 1.0;"/><path d="M447,484.5723 L457,484.5723 C472,484.5723 472,219.7754 487,219.7754 L497,219.7754 " fill="none" style="stroke: #A80036; stroke-width: 1.0;"/><rect fill="#FEFECE" filter="url(#fmh0vyqzd6i6b)" height="34.1328" rx="12.5" ry="12.5" style="stroke: #A80036; stroke-width: 1.5;" width="94" x="497" y="297.4414"/><text fill="#000000" font-family="sans-serif" font-size="12" lengthAdjust="spacingAndGlyphs" textLength="74" x="507" y="319.043">SKU Lifecycle</text><rect fill="#FEFECE" filter="url(#fmh0vyqzd6i6b)" height="34.1328" rx="12.5" ry="12.5" style="stroke: #A80036; stroke-width: 1.5;" width="80" x="641" y="297.4414"/><text fill="#000000" font-family="sans-serif" font-size="12" lengthAdjust="spacingAndGlyphs" textLength="60" x="651" y="319.043">SKU Retire</text><path d="M591,314.5078 L601,314.5078 C616,314.5078 616,314.5078 631,314.5078 L641,314.5078 " fill="none" style="stroke: #A80036; stroke-width: 1.0;"/><path d="M447,484.5723 L457,484.5723 C472,484.5723 472,314.5078 487,314.5078 L497,314.5078 " fill="none" style="stroke: #A80036; stroke-width: 1.0;"/><rect fill="#FEFECE" filter="url(#fmh0vyqzd6i6b)" height="48.2656" rx="12.5" ry="12.5" style="stroke: #A80036; stroke-width: 1.5;" width="153" x="497" y="493.9727"/><text fill="#000000" font-family="sans-serif" font-size="12" lengthAdjust="spacingAndGlyphs" textLength="129" x="507" y="515.5742">Data Services Platform</text><text fill="#000000" font-family="sans-serif" font-size="12" lengthAdjust="spacingAndGlyphs" textLength="66" x="507" y="529.707">(100% SKU)</text><rect fill="#FEFECE" filter="url(#fmh0vyqzd6i6b)" height="34.1328" rx="12.5" ry="12.5" style="stroke: #A80036; stroke-width: 1.5;" width="99" x="700" y="432.7734"/><text fill="#000000" font-family="sans-serif" font-size="12" lengthAdjust="spacingAndGlyphs" textLength="75" x="710" y="454.375">Data sources</text><rect fill="#FEFECE" filter="url(#fmh0vyqzd6i6b)" height="34.1328" rx="12.5" ry="12.5" style="stroke: #A80036; stroke-width: 1.5;" width="137" x="849" y="351.5742"/><text fill="#000000" font-family="sans-serif" font-size="12" lengthAdjust="spacingAndGlyphs" textLength="117" x="859" y="373.1758">Legacy data sources</text><path d="M799,449.8398 L809,449.8398 C824,449.8398 824,368.6406 839,368.6406 L849,368.6406 " fill="none" style="stroke: #A80036; stroke-width: 1.0;"/><rect fill="#FEFECE" filter="url(#fmh0vyqzd6i6b)" height="34.1328" rx="12.5" ry="12.5" style="stroke: #A80036; stroke-width: 1.5;" width="83" x="849" y="405.707"/><text fill="#000000" font-family="sans-serif" font-size="12" lengthAdjust="spacingAndGlyphs" textLength="63" x="859" y="427.3086">Brandbank</text><path d="M799,449.8398 L809,449.8398 C824,449.8398 824,422.7734 839,422.7734 L849,422.7734 " fill="none" style="stroke: #A80036; stroke-width: 1.0;"/><rect fill="#FEFECE" filter="url(#fmh0vyqzd6i6b)" height="34.1328" rx="12.5" ry="12.5" style="stroke: #A80036; stroke-width: 1.5;" width="96" x="849" y="459.8398"/><text fill="#000000" font-family="sans-serif" font-size="12" lengthAdjust="spacingAndGlyphs" textLength="76" x="859" y="481.4414">Virtual Depot</text><path d="M799,449.8398 L809,449.8398 C824,449.8398 824,476.9063 839,476.9063 L849,476.9063 " fill="none" style="stroke: #A80036; stroke-width: 1.0;"/><rect fill="#FEFECE" filter="url(#fmh0vyqzd6i6b)" height="34.1328" rx="12.5" ry="12.5" style="stroke: #A80036; stroke-width: 1.5;" width="72" x="849" y="513.9727"/><text fill="#000000" font-family="sans-serif" font-size="12" lengthAdjust="spacingAndGlyphs" textLength="52" x="859" y="535.5742">Cubiscan</text><path d="M799,449.8398 L809,449.8398 C824,449.8398 824,531.0391 839,531.0391 L849,531.0391 " fill="none" style="stroke: #A80036; stroke-width: 1.0;"/><path d="M650,518.1055 L660,518.1055 C675,518.1055 675,449.8398 690,449.8398 L700,449.8398 " fill="none" style="stroke: #A80036; stroke-width: 1.0;"/><rect fill="#FEFECE" filter="url(#fmh0vyqzd6i6b)" height="34.1328" rx="12.5" ry="12.5" style="stroke: #A80036; stroke-width: 1.5;" width="107" x="700" y="609.3047"/><text fill="#000000" font-family="sans-serif" font-size="12" lengthAdjust="spacingAndGlyphs" textLength="87" x="710" y="630.9063">Access method</text><rect fill="#FEFECE" filter="url(#fmh0vyqzd6i6b)" height="48.2656" rx="12.5" ry="12.5" style="stroke: #A80036; stroke-width: 1.5;" width="83" x="857" y="568.1055"/><text fill="#000000" font-family="sans-serif" font-size="12" lengthAdjust="spacingAndGlyphs" textLength="63" x="867" y="589.707">Pull-based</text><text fill="#000000" font-family="sans-serif" font-size="12" lengthAdjust="spacingAndGlyphs" textLength="37" x="867" y="603.8398">(REST)</text><path d="M807,626.3711 L817,626.3711 C832,626.3711 832,592.2383 847,592.2383 L857,592.2383 " fill="none" style="stroke: #A80036; stroke-width: 1.0;"/><rect fill="#FEFECE" filter="url(#fmh0vyqzd6i6b)" height="48.2656" rx="12.5" ry="12.5" style="stroke: #A80036; stroke-width: 1.5;" width="152" x="857" y="636.3711"/><text fill="#000000" font-family="sans-serif" font-size="12" lengthAdjust="spacingAndGlyphs" textLength="70" x="867" y="657.9727">Push-based</text><text fill="#000000" font-family="sans-serif" font-size="12" lengthAdjust="spacingAndGlyphs" textLength="132" x="867" y="672.1055">(Events and Streaming)</text><path d="M807,626.3711 L817,626.3711 C832,626.3711 832,660.5039 847,660.5039 L857,660.5039 " fill="none" style="stroke: #A80036; stroke-width: 1.0;"/><path d="M650,518.1055 L660,518.1055 C675,518.1055 675,626.3711 690,626.3711 L700,626.3711 " fill="none" style="stroke: #A80036; stroke-width: 1.0;"/><path d="M447,484.5723 L457,484.5723 C472,484.5723 472,518.1055 487,518.1055 L497,518.1055 " fill="none" style="stroke: #A80036; stroke-width: 1.0;"/><rect fill="#FEFECE" filter="url(#fmh0vyqzd6i6b)" height="62.3984" rx="12.5" ry="12.5" style="stroke: #A80036; stroke-width: 1.5;" width="124" x="497" y="562.2383"/><text fill="#000000" font-family="sans-serif" font-size="12" lengthAdjust="spacingAndGlyphs" textLength="80" x="507" y="583.8398">Data cut-over</text><text fill="#000000" font-family="sans-serif" font-size="12" lengthAdjust="spacingAndGlyphs" textLength="100" x="507" y="597.9727">(migration to new</text><text fill="#000000" font-family="sans-serif" font-size="12" lengthAdjust="spacingAndGlyphs" textLength="53" x="507" y="612.1055">platform)</text><path d="M447,484.5723 L457,484.5723 C472,484.5723 472,593.4375 487,593.4375 L497,593.4375 " fill="none" style="stroke: #A80036; stroke-width: 1.0;"/><rect fill="#FEFECE" filter="url(#fmh0vyqzd6i6b)" height="34.1328" rx="12.5" ry="12.5" style="stroke: #A80036; stroke-width: 1.5;" width="98" x="497" y="731.7031"/><text fill="#000000" font-family="sans-serif" font-size="12" lengthAdjust="spacingAndGlyphs" textLength="78" x="507" y="753.3047">Measurement</text><rect fill="#FEFECE" filter="url(#fmh0vyqzd6i6b)" height="34.1328" rx="12.5" ry="12.5" style="stroke: #A80036; stroke-width: 1.5;" width="90" x="645" y="731.7031"/><text fill="#000000" font-family="sans-serif" font-size="12" lengthAdjust="spacingAndGlyphs" textLength="70" x="655" y="753.3047">Data Quality</text><rect fill="#FEFECE" filter="url(#fmh0vyqzd6i6b)" height="34.1328" rx="12.5" ry="12.5" style="stroke: #A80036; stroke-width: 1.5;" width="133" x="785" y="704.6367"/><text fill="#000000" font-family="sans-serif" font-size="12" lengthAdjust="spacingAndGlyphs" textLength="113" x="795" y="726.2383">Rules based Engine</text><path d="M735,748.7695 L745,748.7695 C760,748.7695 760,721.7031 775,721.7031 L785,721.7031 " fill="none" style="stroke: #A80036; stroke-width: 1.0;"/><rect fill="#FEFECE" filter="url(#fmh0vyqzd6i6b)" height="34.1328" rx="12.5" ry="12.5" style="stroke: #A80036; stroke-width: 1.5;" width="76" x="785" y="758.7695"/><text fill="#000000" font-family="sans-serif" font-size="12" lengthAdjust="spacingAndGlyphs" textLength="56" x="795" y="780.3711">Reporting</text><path d="M735,748.7695 L745,748.7695 C760,748.7695 760,775.8359 775,775.8359 L785,775.8359 " fill="none" style="stroke: #A80036; stroke-width: 1.0;"/><path d="M595,748.7695 L605,748.7695 C620,748.7695 620,748.7695 635,748.7695 L645,748.7695 " fill="none" style="stroke: #A80036; stroke-width: 1.0;"/><path d="M447,484.5723 L457,484.5723 C472,484.5723 472,748.7695 487,748.7695 L497,748.7695 " fill="none" style="stroke: #A80036; stroke-width: 1.0;"/><rect fill="#FEFECE" filter="url(#fmh0vyqzd6i6b)" height="48.2656" rx="12.5" ry="12.5" style="stroke: #A80036; stroke-width: 1.5;" width="142" x="497" y="839.9688"/><text fill="#000000" font-family="sans-serif" font-size="12" lengthAdjust="spacingAndGlyphs" textLength="118" x="507" y="861.5703">Cross-cutting across</text><text fill="#000000" font-family="sans-serif" font-size="12" lengthAdjust="spacingAndGlyphs" textLength="74" x="507" y="875.7031">workstreams</text><rect fill="#FEFECE" filter="url(#fmh0vyqzd6i6b)" height="48.2656" rx="12.5" ry="12.5" style="stroke: #A80036; stroke-width: 1.5;" width="136" x="689" y="812.9023"/><text fill="#000000" font-family="sans-serif" font-size="12" lengthAdjust="spacingAndGlyphs" textLength="112" x="699" y="834.5039">Reporting of events</text><text fill="#000000" font-family="sans-serif" font-size="12" lengthAdjust="spacingAndGlyphs" textLength="40" x="699" y="848.6367">stream</text><path d="M639,864.1016 L649,864.1016 C664,864.1016 664,837.0352 679,837.0352 L689,837.0352 " fill="none" style="stroke: #A80036; stroke-width: 1.0;"/><rect fill="#FEFECE" filter="url(#fmh0vyqzd6i6b)" height="34.1328" rx="12.5" ry="12.5" style="stroke: #A80036; stroke-width: 1.5;" width="138" x="689" y="881.168"/><text fill="#000000" font-family="sans-serif" font-size="12" lengthAdjust="spacingAndGlyphs" textLength="118" x="699" y="902.7695">Landing in Data lake</text><path d="M639,864.1016 L649,864.1016 C664,864.1016 664,898.2344 679,898.2344 L689,898.2344 " fill="none" style="stroke: #A80036; stroke-width: 1.0;"/><path d="M447,484.5723 L457,484.5723 C472,484.5723 472,864.1016 487,864.1016 L497,864.1016 " fill="none" style="stroke: #A80036; stroke-width: 1.0;"/><rect fill="#FEFECE" filter="url(#fmh0vyqzd6i6b)" height="34.1328" rx="12.5" ry="12.5" style="stroke: #A80036; stroke-width: 1.5;" width="81" x="210" y="467.5059"/><text fill="#000000" font-family="sans-serif" font-size="12" lengthAdjust="spacingAndGlyphs" textLength="61" x="220" y="489.1074">Categories</text><rect fill="#FEFECE" filter="url(#fmh0vyqzd6i6b)" height="34.1328" rx="12.5" ry="12.5" style="stroke: #A80036; stroke-width: 1.5;" width="150" x="10" y="169.7754"/><text fill="#000000" font-family="sans-serif" font-size="12" lengthAdjust="spacingAndGlyphs" textLength="130" x="20" y="191.377">Home &amp; Personal Care</text><path d="M210,484.5723 L200,484.5723 C185,484.5723 185,186.8418 170,186.8418 L160,186.8418 " fill="none" style="stroke: #A80036; stroke-width: 1.0;"/><rect fill="#FEFECE" filter="url(#fmh0vyqzd6i6b)" height="34.1328" rx="12.5" ry="12.5" style="stroke: #A80036; stroke-width: 1.5;" width="145" x="15" y="223.9082"/><text fill="#000000" font-family="sans-serif" font-size="12" lengthAdjust="spacingAndGlyphs" textLength="125" x="25" y="245.5098">Packaged &amp; Speciality</text><path d="M210,484.5723 L200,484.5723 C185,484.5723 185,240.9746 170,240.9746 L160,240.9746 " fill="none" style="stroke: #A80036; stroke-width: 1.0;"/><rect fill="#FEFECE" filter="url(#fmh0vyqzd6i6b)" height="34.1328" rx="12.5" ry="12.5" style="stroke: #A80036; stroke-width: 1.5;" width="65" x="95" y="278.041"/><text fill="#000000" font-family="sans-serif" font-size="12" lengthAdjust="spacingAndGlyphs" textLength="45" x="105" y="299.6426">Impulse</text><path d="M210,484.5723 L200,484.5723 C185,484.5723 185,295.1074 170,295.1074 L160,295.1074 " fill="none" style="stroke: #A80036; stroke-width: 1.0;"/><rect fill="#FEFECE" filter="url(#fmh0vyqzd6i6b)" height="34.1328" rx="12.5" ry="12.5" style="stroke: #A80036; stroke-width: 1.5;" width="50" x="110" y="332.1738"/><text fill="#000000" font-family="sans-serif" font-size="12" lengthAdjust="spacingAndGlyphs" textLength="30" x="120" y="353.7754">Dairy</text><path d="M210,484.5723 L200,484.5723 C185,484.5723 185,349.2402 170,349.2402 L160,349.2402 " fill="none" style="stroke: #A80036; stroke-width: 1.0;"/><rect fill="#FEFECE" filter="url(#fmh0vyqzd6i6b)" height="34.1328" rx="12.5" ry="12.5" style="stroke: #A80036; stroke-width: 1.5;" width="97" x="63" y="386.3066"/><text fill="#000000" font-family="sans-serif" font-size="12" lengthAdjust="spacingAndGlyphs" textLength="77" x="73" y="407.9082">Frozen Foods</text><path d="M210,484.5723 L200,484.5723 C185,484.5723 185,403.373 170,403.373 L160,403.373 " fill="none" style="stroke: #A80036; stroke-width: 1.0;"/><rect fill="#FEFECE" filter="url(#fmh0vyqzd6i6b)" height="34.1328" rx="12.5" ry="12.5" style="stroke: #A80036; stroke-width: 1.5;" width="43" x="117" y="440.4395"/><text fill="#000000" font-family="sans-serif" font-size="12" lengthAdjust="spacingAndGlyphs" textLength="23" x="127" y="462.041">BWS</text><path d="M210,484.5723 L200,484.5723 C185,484.5723 185,457.5059 170,457.5059 L160,457.5059 " fill="none" style="stroke: #A80036; stroke-width: 1.0;"/><rect fill="#FEFECE" filter="url(#fmh0vyqzd6i6b)" height="34.1328" rx="12.5" ry="12.5" style="stroke: #A80036; stroke-width: 1.5;" width="59" x="101" y="494.5723"/><text fill="#000000" font-family="sans-serif" font-size="12" lengthAdjust="spacingAndGlyphs" textLength="39" x="111" y="516.1738">Bakery</text><path d="M210,484.5723 L200,484.5723 C185,484.5723 185,511.6387 170,511.6387 L160,511.6387 " fill="none" style="stroke: #A80036; stroke-width: 1.0;"/><rect fill="#FEFECE" filter="url(#fmh0vyqzd6i6b)" height="34.1328" rx="12.5" ry="12.5" style="stroke: #A80036; stroke-width: 1.5;" width="101" x="59" y="548.7051"/><text fill="#000000" font-family="sans-serif" font-size="12" lengthAdjust="spacingAndGlyphs" textLength="81" x="69" y="570.3066">Meal Solutions</text><path d="M210,484.5723 L200,484.5723 C185,484.5723 185,565.7715 170,565.7715 L160,565.7715 " fill="none" style="stroke: #A80036; stroke-width: 1.0;"/><rect fill="#FEFECE" filter="url(#fmh0vyqzd6i6b)" height="34.1328" rx="12.5" ry="12.5" style="stroke: #A80036; stroke-width: 1.5;" width="43" x="117" y="602.8379"/><text fill="#000000" font-family="sans-serif" font-size="12" lengthAdjust="spacingAndGlyphs" textLength="23" x="127" y="624.4395">MFP</text><path d="M210,484.5723 L200,484.5723 C185,484.5723 185,619.9043 170,619.9043 L160,619.9043 " fill="none" style="stroke: #A80036; stroke-width: 1.0;"/><rect fill="#FEFECE" filter="url(#fmh0vyqzd6i6b)" height="34.1328" rx="12.5" ry="12.5" style="stroke: #A80036; stroke-width: 1.5;" width="116" x="44" y="656.9707"/><text fill="#000000" font-family="sans-serif" font-size="12" lengthAdjust="spacingAndGlyphs" textLength="96" x="54" y="678.5723">Home &amp; Lifestyle</text><path d="M210,484.5723 L200,484.5723 C185,484.5723 185,674.0371 170,674.0371 L160,674.0371 " fill="none" style="stroke: #A80036; stroke-width: 1.0;"/><rect fill="#FEFECE" filter="url(#fmh0vyqzd6i6b)" height="34.1328" rx="12.5" ry="12.5" style="stroke: #A80036; stroke-width: 1.5;" width="122" x="38" y="711.1035"/><text fill="#000000" font-family="sans-serif" font-size="12" lengthAdjust="spacingAndGlyphs" textLength="102" x="48" y="732.7051">Veg, Salad &amp; Fruit</text><path d="M210,484.5723 L200,484.5723 C185,484.5723 185,728.1699 170,728.1699 L160,728.1699 " fill="none" style="stroke: #A80036; stroke-width: 1.0;"/><rect fill="#FEFECE" filter="url(#fmh0vyqzd6i6b)" height="34.1328" rx="12.5" ry="12.5" style="stroke: #A80036; stroke-width: 1.5;" width="76" x="84" y="765.2363"/><text fill="#000000" font-family="sans-serif" font-size="12" lengthAdjust="spacingAndGlyphs" textLength="56" x="94" y="786.8379">Pharmacy</text><path d="M210,484.5723 L200,484.5723 C185,484.5723 185,782.3027 170,782.3027 L160,782.3027 " fill="none" style="stroke: #A80036; stroke-width: 1.0;"/><path d="M341,484.5723 L331,484.5723 C316,484.5723 316,484.5723 301,484.5723 L291,484.5723 " fill="none" style="stroke: #A80036; stroke-width: 1.0;"/><!--
--></g></svg>