<?xml version="1.0" encoding="UTF-8" standalone="no"?><svg xmlns="http://www.w3.org/2000/svg" xmlns:xlink="http://www.w3.org/1999/xlink" contentScriptType="application/ecmascript" contentStyleType="text/css" height="938px" preserveAspectRatio="none" style="width:1020px;height:938px;" version="1.1" viewBox="0 0 1020 938" width="1020px" zoomAndPan="magnify"><defs><filter height="300%" id="f1fgd54aunbe3d" width="300%" x="-1" y="-1"><feGaussianBlur result="blurOut" stdDeviation="2.0"/><feColorMatrix in="blurOut" result="blurOut2" type="matrix" values="0 0 0 0 0 0 0 0 0 0 0 0 0 0 0 0 0 0 .4 0"/><feOffset dx="4.0" dy="4.0" in="blurOut2" result="blurOut3"/><feBlend in="SourceGraphic" in2="blurOut3" mode="normal"/></filter></defs><g><text fill="#888888" font-family="sans-serif" font-size="10" lengthAdjust="spacingAndGlyphs" textLength="93" x="816" y="19.668">Product Scope V0.1</text><rect fill="#E6E6FA" height="28.8438" style="stroke: #00008B; stroke-width: 2.0;" width="394" x="262" y="23.7773"/><text fill="#000080" font-family="sans-serif" font-size="16" lengthAdjust="spacingAndGlyphs" textLength="378" x="270" y="44.2461">Product Scope, Business Epics and Steel Threads</text><rect fill="#FEFECE" filter="url(#f1fgd54aunbe3d)" height="43.5547" rx="12.5" ry="12.5" style="stroke: #A80036; stroke-width: 1.5;" width="106" x="341" y="474.5723"/><text fill="#000000" font-family="sans-serif" font-size="20" font-weight="bold" lengthAdjust="spacingAndGlyphs" textLength="79" x="358" y="503.9082">Product</text><rect fill="#FEFECE" filter="url(#f1fgd54aunbe3d)" height="34.1328" rx="12.5" ry="12.5" style="stroke: #A80036; stroke-width: 1.5;" width="107" x="497" y="92.6875"/><text fill="#000000" font-family="sans-serif" font-size="12" lengthAdjust="spacingAndGlyphs" textLength="87" x="507" y="114.2891">New SKU Setup</text><rect fill="#FEFECE" filter="url(#f1fgd54aunbe3d)" height="34.1328" rx="12.5" ry="12.5" style="stroke: #A80036; stroke-width: 1.5;" width="138" x="654" y="92.6875"/><text fill="#000000" font-family="sans-serif" font-size="12" lengthAdjust="spacingAndGlyphs" textLength="118" x="664" y="114.2891">Access management</text><rect fill="#FEFECE" filter="url(#f1fgd54aunbe3d)" height="34.1328" rx="12.5" ry="12.5" style="stroke: #A80036; stroke-width: 1.5;" width="102" x="842" y="65.6211"/><text fill="#000000" font-family="sans-serif" font-size="12" lengthAdjust="spacingAndGlyphs" textLength="82" x="852" y="87.2227">External users</text><path d="M792,109.7539 L802,109.7539 C817,109.7539 817,82.6875 832,82.6875 L842,82.6875 " fill="none" style="stroke: #A80036; stroke-width: 1.0;"/><rect fill="#FEFECE" filter="url(#f1fgd54aunbe3d)" height="34.1328" rx="12.5" ry="12.5" style="stroke: #A80036; stroke-width: 1.5;" width="98" x="842" y="119.7539"/><text fill="#000000" font-family="sans-serif" font-size="12" lengthAdjust="spacingAndGlyphs" textLength="78" x="852" y="141.3555">Internal users</text><path d="M792,109.7539 L802,109.7539 C817,109.7539 817,136.8203 832,136.8203 L842,136.8203 " fill="none" style="stroke: #A80036; stroke-width: 1.0;"/><path d="M604,109.7539 L614,109.7539 C629,109.7539 629,109.7539 644,109.7539 L654,109.7539 " fill="none" style="stroke: #A80036; stroke-width: 1.0;"/><path d="M447,496.3496 L457,496.3496 C472,496.3496 472,109.7539 487,109.7539 L497,109.7539 " fill="none" style="stroke: #A80036; stroke-width: 1.0;"/><rect fill="#FEFECE" filter="url(#f1fgd54aunbe3d)" height="34.1328" rx="12.5" ry="12.5" style="stroke: #A80036; stroke-width: 1.5;" width="118" x="497" y="214.4863"/><text fill="#000000" font-family="sans-serif" font-size="12" lengthAdjust="spacingAndGlyphs" textLength="98" x="507" y="236.0879">SKU Maintenance</text><rect fill="#FEFECE" filter="url(#f1fgd54aunbe3d)" height="34.1328" rx="12.5" ry="12.5" style="stroke: #A80036; stroke-width: 1.5;" width="138" x="665" y="200.9531"/><text fill="#000000" font-family="sans-serif" font-size="12" lengthAdjust="spacingAndGlyphs" textLength="118" x="675" y="222.5547">Access management</text><rect fill="#FEFECE" filter="url(#f1fgd54aunbe3d)" height="34.1328" rx="12.5" ry="12.5" style="stroke: #A80036; stroke-width: 1.5;" width="106" x="853" y="173.8867"/><text fill="#000000" font-family="sans-serif" font-size="12" lengthAdjust="spacingAndGlyphs" textLength="82" x="863" y="195.4883">External users</text><path d="M803,218.0195 L813,218.0195 C828,218.0195 828,190.9531 843,190.9531 L853,190.9531 " fill="none" style="stroke: #A80036; stroke-width: 1.0;"/><rect fill="#FEFECE" filter="url(#f1fgd54aunbe3d)" height="34.1328" rx="12.5" ry="12.5" style="stroke: #A80036; stroke-width: 1.5;" width="98" x="853" y="228.0195"/><text fill="#000000" font-family="sans-serif" font-size="12" lengthAdjust="spacingAndGlyphs" textLength="78" x="863" y="249.6211">Internal users</text><path d="M803,218.0195 L813,218.0195 C828,218.0195 828,245.0859 843,245.0859 L853,245.0859 " fill="none" style="stroke: #A80036; stroke-width: 1.0;"/><path d="M615,231.5527 L625,231.5527 C640,231.5527 640,218.0195 655,218.0195 L665,218.0195 " fill="none" style="stroke: #A80036; stroke-width: 1.0;"/><rect fill="#FEFECE" filter="url(#f1fgd54aunbe3d)" height="34.1328" rx="12.5" ry="12.5" style="stroke: #A80036; stroke-width: 1.5;" width="88" x="665" y="255.0859"/><text fill="#000000" font-family="sans-serif" font-size="12" lengthAdjust="spacingAndGlyphs" textLength="68" x="675" y="276.6875">SKU Update</text><path d="M615,231.5527 L625,231.5527 C640,231.5527 640,272.1523 655,272.1523 L665,272.1523 " fill="none" style="stroke: #A80036; stroke-width: 1.0;"/><path d="M447,496.3496 L457,496.3496 C472,496.3496 472,231.5527 487,231.5527 L497,231.5527 " fill="none" style="stroke: #A80036; stroke-width: 1.0;"/><rect fill="#FEFECE" filter="url(#f1fgd54aunbe3d)" height="34.1328" rx="12.5" ry="12.5" style="stroke: #A80036; stroke-width: 1.5;" width="94" x="497" y="309.2188"/><text fill="#000000" font-family="sans-serif" font-size="12" lengthAdjust="spacingAndGlyphs" textLength="74" x="507" y="330.8203">SKU Lifecycle</text><rect fill="#FEFECE" filter="url(#f1fgd54aunbe3d)" height="34.1328" rx="12.5" ry="12.5" style="stroke: #A80036; stroke-width: 1.5;" width="80" x="641" y="309.2188"/><text fill="#000000" font-family="sans-serif" font-size="12" lengthAdjust="spacingAndGlyphs" textLength="60" x="651" y="330.8203">SKU Retire</text><path d="M591,326.2852 L601,326.2852 C616,326.2852 616,326.2852 631,326.2852 L641,326.2852 " fill="none" style="stroke: #A80036; stroke-width: 1.0;"/><path d="M447,496.3496 L457,496.3496 C472,496.3496 472,326.2852 487,326.2852 L497,326.2852 " fill="none" style="stroke: #A80036; stroke-width: 1.0;"/><rect fill="#FEFECE" filter="url(#f1fgd54aunbe3d)" height="48.2656" rx="12.5" ry="12.5" style="stroke: #A80036; stroke-width: 1.5;" width="153" x="497" y="505.75"/><text fill="#000000" font-family="sans-serif" font-size="12" lengthAdjust="spacingAndGlyphs" textLength="129" x="507" y="527.3516">Data Services Platform</text><text fill="#000000" font-family="sans-serif" font-size="12" lengthAdjust="spacingAndGlyphs" textLength="66" x="507" y="541.4844">(100% SKU)</text><rect fill="#FEFECE" filter="url(#f1fgd54aunbe3d)" height="34.1328" rx="12.5" ry="12.5" style="stroke: #A80036; stroke-width: 1.5;" width="99" x="700" y="444.5508"/><text fill="#000000" font-family="sans-serif" font-size="12" lengthAdjust="spacingAndGlyphs" textLength="75" x="710" y="466.1523">Data sources</text><rect fill="#FEFECE" filter="url(#f1fgd54aunbe3d)" height="34.1328" rx="12.5" ry="12.5" style="stroke: #A80036; stroke-width: 1.5;" width="137" x="849" y="363.3516"/><text fill="#000000" font-family="sans-serif" font-size="12" lengthAdjust="spacingAndGlyphs" textLength="117" x="859" y="384.9531">Legacy data sources</text><path d="M799,461.6172 L809,461.6172 C824,461.6172 824,380.418 839,380.418 L849,380.418 " fill="none" style="stroke: #A80036; stroke-width: 1.0;"/><rect fill="#FEFECE" filter="url(#f1fgd54aunbe3d)" height="34.1328" rx="12.5" ry="12.5" style="stroke: #A80036; stroke-width: 1.5;" width="83" x="849" y="417.4844"/><text fill="#000000" font-family="sans-serif" font-size="12" lengthAdjust="spacingAndGlyphs" textLength="63" x="859" y="439.0859">Brandbank</text><path d="M799,461.6172 L809,461.6172 C824,461.6172 824,434.5508 839,434.5508 L849,434.5508 " fill="none" style="stroke: #A80036; stroke-width: 1.0;"/><rect fill="#FEFECE" filter="url(#f1fgd54aunbe3d)" height="34.1328" rx="12.5" ry="12.5" style="stroke: #A80036; stroke-width: 1.5;" width="96" x="849" y="471.6172"/><text fill="#000000" font-family="sans-serif" font-size="12" lengthAdjust="spacingAndGlyphs" textLength="76" x="859" y="493.2188">Virtual Depot</text><path d="M799,461.6172 L809,461.6172 C824,461.6172 824,488.6836 839,488.6836 L849,488.6836 " fill="none" style="stroke: #A80036; stroke-width: 1.0;"/><rect fill="#FEFECE" filter="url(#f1fgd54aunbe3d)" height="34.1328" rx="12.5" ry="12.5" style="stroke: #A80036; stroke-width: 1.5;" width="72" x="849" y="525.75"/><text fill="#000000" font-family="sans-serif" font-size="12" lengthAdjust="spacingAndGlyphs" textLength="52" x="859" y="547.3516">Cubiscan</text><path d="M799,461.6172 L809,461.6172 C824,461.6172 824,542.8164 839,542.8164 L849,542.8164 " fill="none" style="stroke: #A80036; stroke-width: 1.0;"/><path d="M650,529.8828 L660,529.8828 C675,529.8828 675,461.6172 690,461.6172 L700,461.6172 " fill="none" style="stroke: #A80036; stroke-width: 1.0;"/><rect fill="#FEFECE" filter="url(#f1fgd54aunbe3d)" height="34.1328" rx="12.5" ry="12.5" style="stroke: #A80036; stroke-width: 1.5;" width="107" x="700" y="621.082"/><text fill="#000000" font-family="sans-serif" font-size="12" lengthAdjust="spacingAndGlyphs" textLength="87" x="710" y="642.6836">Access method</text><rect fill="#FEFECE" filter="url(#f1fgd54aunbe3d)" height="48.2656" rx="12.5" ry="12.5" style="stroke: #A80036; stroke-width: 1.5;" width="83" x="857" y="579.8828"/><text fill="#000000" font-family="sans-serif" font-size="12" lengthAdjust="spacingAndGlyphs" textLength="63" x="867" y="601.4844">Pull-based</text><text fill="#000000" font-family="sans-serif" font-size="12" lengthAdjust="spacingAndGlyphs" textLength="37" x="867" y="615.6172">(REST)</text><path d="M807,638.1484 L817,638.1484 C832,638.1484 832,604.0156 847,604.0156 L857,604.0156 " fill="none" style="stroke: #A80036; stroke-width: 1.0;"/><rect fill="#FEFECE" filter="url(#f1fgd54aunbe3d)" height="48.2656" rx="12.5" ry="12.5" style="stroke: #A80036; stroke-width: 1.5;" width="152" x="857" y="648.1484"/><text fill="#000000" font-family="sans-serif" font-size="12" lengthAdjust="spacingAndGlyphs" textLength="70" x="867" y="669.75">Push-based</text><text fill="#000000" font-family="sans-serif" font-size="12" lengthAdjust="spacingAndGlyphs" textLength="132" x="867" y="683.8828">(Events and Streaming)</text><path d="M807,638.1484 L817,638.1484 C832,638.1484 832,672.2813 847,672.2813 L857,672.2813 " fill="none" style="stroke: #A80036; stroke-width: 1.0;"/><path d="M650,529.8828 L660,529.8828 C675,529.8828 675,638.1484 690,638.1484 L700,638.1484 " fill="none" style="stroke: #A80036; stroke-width: 1.0;"/><path d="M447,496.3496 L457,496.3496 C472,496.3496 472,529.8828 487,529.8828 L497,529.8828 " fill="none" style="stroke: #A80036; stroke-width: 1.0;"/><rect fill="#FEFECE" filter="url(#f1fgd54aunbe3d)" height="62.3984" rx="12.5" ry="12.5" style="stroke: #A80036; stroke-width: 1.5;" width="124" x="497" y="574.0156"/><text fill="#000000" font-family="sans-serif" font-size="12" lengthAdjust="spacingAndGlyphs" textLength="80" x="507" y="595.6172">Data cut-over</text><text fill="#000000" font-family="sans-serif" font-size="12" lengthAdjust="spacingAndGlyphs" textLength="100" x="507" y="609.75">(migration to new</text><text fill="#000000" font-family="sans-serif" font-size="12" lengthAdjust="spacingAndGlyphs" textLength="53" x="507" y="623.8828">platform)</text><path d="M447,496.3496 L457,496.3496 C472,496.3496 472,605.2148 487,605.2148 L497,605.2148 " fill="none" style="stroke: #A80036; stroke-width: 1.0;"/><rect fill="#FEFECE" filter="url(#f1fgd54aunbe3d)" height="34.1328" rx="12.5" ry="12.5" style="stroke: #A80036; stroke-width: 1.5;" width="98" x="497" y="743.4805"/><text fill="#000000" font-family="sans-serif" font-size="12" lengthAdjust="spacingAndGlyphs" textLength="78" x="507" y="765.082">Measurement</text><rect fill="#FEFECE" filter="url(#f1fgd54aunbe3d)" height="34.1328" rx="12.5" ry="12.5" style="stroke: #A80036; stroke-width: 1.5;" width="90" x="645" y="743.4805"/><text fill="#000000" font-family="sans-serif" font-size="12" lengthAdjust="spacingAndGlyphs" textLength="70" x="655" y="765.082">Data Quality</text><rect fill="#FEFECE" filter="url(#f1fgd54aunbe3d)" height="34.1328" rx="12.5" ry="12.5" style="stroke: #A80036; stroke-width: 1.5;" width="133" x="785" y="716.4141"/><text fill="#000000" font-family="sans-serif" font-size="12" lengthAdjust="spacingAndGlyphs" textLength="113" x="795" y="738.0156">Rules based Engine</text><path d="M735,760.5469 L745,760.5469 C760,760.5469 760,733.4805 775,733.4805 L785,733.4805 " fill="none" style="stroke: #A80036; stroke-width: 1.0;"/><rect fill="#FEFECE" filter="url(#f1fgd54aunbe3d)" height="34.1328" rx="12.5" ry="12.5" style="stroke: #A80036; stroke-width: 1.5;" width="76" x="785" y="770.5469"/><text fill="#000000" font-family="sans-serif" font-size="12" lengthAdjust="spacingAndGlyphs" textLength="56" x="795" y="792.1484">Reporting</text><path d="M735,760.5469 L745,760.5469 C760,760.5469 760,787.6133 775,787.6133 L785,787.6133 " fill="none" style="stroke: #A80036; stroke-width: 1.0;"/><path d="M595,760.5469 L605,760.5469 C620,760.5469 620,760.5469 635,760.5469 L645,760.5469 " fill="none" style="stroke: #A80036; stroke-width: 1.0;"/><path d="M447,496.3496 L457,496.3496 C472,496.3496 472,760.5469 487,760.5469 L497,760.5469 " fill="none" style="stroke: #A80036; stroke-width: 1.0;"/><rect fill="#FEFECE" filter="url(#f1fgd54aunbe3d)" height="48.2656" rx="12.5" ry="12.5" style="stroke: #A80036; stroke-width: 1.5;" width="142" x="497" y="851.7461"/><text fill="#000000" font-family="sans-serif" font-size="12" lengthAdjust="spacingAndGlyphs" textLength="118" x="507" y="873.3477">Cross-cutting across</text><text fill="#000000" font-family="sans-serif" font-size="12" lengthAdjust="spacingAndGlyphs" textLength="74" x="507" y="887.4805">workstreams</text><rect fill="#FEFECE" filter="url(#f1fgd54aunbe3d)" height="48.2656" rx="12.5" ry="12.5" style="stroke: #A80036; stroke-width: 1.5;" width="136" x="689" y="824.6797"/><text fill="#000000" font-family="sans-serif" font-size="12" lengthAdjust="spacingAndGlyphs" textLength="112" x="699" y="846.2813">Reporting of events</text><text fill="#000000" font-family="sans-serif" font-size="12" lengthAdjust="spacingAndGlyphs" textLength="40" x="699" y="860.4141">stream</text><path d="M639,875.8789 L649,875.8789 C664,875.8789 664,848.8125 679,848.8125 L689,848.8125 " fill="none" style="stroke: #A80036; stroke-width: 1.0;"/><rect fill="#FEFECE" filter="url(#f1fgd54aunbe3d)" height="34.1328" rx="12.5" ry="12.5" style="stroke: #A80036; stroke-width: 1.5;" width="138" x="689" y="892.9453"/><text fill="#000000" font-family="sans-serif" font-size="12" lengthAdjust="spacingAndGlyphs" textLength="118" x="699" y="914.5469">Landing in Data lake</text><path d="M639,875.8789 L649,875.8789 C664,875.8789 664,910.0117 679,910.0117 L689,910.0117 " fill="none" style="stroke: #A80036; stroke-width: 1.0;"/><path d="M447,496.3496 L457,496.3496 C472,496.3496 472,875.8789 487,875.8789 L497,875.8789 " fill="none" style="stroke: #A80036; stroke-width: 1.0;"/><rect fill="#FEFECE" filter="url(#f1fgd54aunbe3d)" height="34.1328" rx="12.5" ry="12.5" style="stroke: #A80036; stroke-width: 1.5;" width="81" x="210" y="479.2832"/><text fill="#000000" font-family="sans-serif" font-size="12" lengthAdjust="spacingAndGlyphs" textLength="61" x="220" y="500.8848">Categories</text><rect fill="#FEFECE" filter="url(#f1fgd54aunbe3d)" height="34.1328" rx="12.5" ry="12.5" style="stroke: #A80036; stroke-width: 1.5;" width="150" x="10" y="181.5527"/><text fill="#000000" font-family="sans-serif" font-size="12" lengthAdjust="spacingAndGlyphs" textLength="130" x="20" y="203.1543">Home &amp; Personal Care</text><path d="M210,496.3496 L200,496.3496 C185,496.3496 185,198.6191 170,198.6191 L160,198.6191 " fill="none" style="stroke: #A80036; stroke-width: 1.0;"/><rect fill="#FEFECE" filter="url(#f1fgd54aunbe3d)" height="34.1328" rx="12.5" ry="12.5" style="stroke: #A80036; stroke-width: 1.5;" width="145" x="15" y="235.6855"/><text fill="#000000" font-family="sans-serif" font-size="12" lengthAdjust="spacingAndGlyphs" textLength="125" x="25" y="257.2871">Packaged &amp; Speciality</text><path d="M210,496.3496 L200,496.3496 C185,496.3496 185,252.752 170,252.752 L160,252.752 " fill="none" style="stroke: #A80036; stroke-width: 1.0;"/><rect fill="#FEFECE" filter="url(#f1fgd54aunbe3d)" height="34.1328" rx="12.5" ry="12.5" style="stroke: #A80036; stroke-width: 1.5;" width="65" x="95" y="289.8184"/><text fill="#000000" font-family="sans-serif" font-size="12" lengthAdjust="spacingAndGlyphs" textLength="45" x="105" y="311.4199">Impulse</text><path d="M210,496.3496 L200,496.3496 C185,496.3496 185,306.8848 170,306.8848 L160,306.8848 " fill="none" style="stroke: #A80036; stroke-width: 1.0;"/><rect fill="#FEFECE" filter="url(#f1fgd54aunbe3d)" height="34.1328" rx="12.5" ry="12.5" style="stroke: #A80036; stroke-width: 1.5;" width="50" x="110" y="343.9512"/><text fill="#000000" font-family="sans-serif" font-size="12" lengthAdjust="spacingAndGlyphs" textLength="30" x="120" y="365.5527">Dairy</text><path d="M210,496.3496 L200,496.3496 C185,496.3496 185,361.0176 170,361.0176 L160,361.0176 " fill="none" style="stroke: #A80036; stroke-width: 1.0;"/><rect fill="#FEFECE" filter="url(#f1fgd54aunbe3d)" height="34.1328" rx="12.5" ry="12.5" style="stroke: #A80036; stroke-width: 1.5;" width="97" x="63" y="398.084"/><text fill="#000000" font-family="sans-serif" font-size="12" lengthAdjust="spacingAndGlyphs" textLength="77" x="73" y="419.6855">Frozen Foods</text><path d="M210,496.3496 L200,496.3496 C185,496.3496 185,415.1504 170,415.1504 L160,415.1504 " fill="none" style="stroke: #A80036; stroke-width: 1.0;"/><rect fill="#FEFECE" filter="url(#f1fgd54aunbe3d)" height="34.1328" rx="12.5" ry="12.5" style="stroke: #A80036; stroke-width: 1.5;" width="43" x="117" y="452.2168"/><text fill="#000000" font-family="sans-serif" font-size="12" lengthAdjust="spacingAndGlyphs" textLength="23" x="127" y="473.8184">BWS</text><path d="M210,496.3496 L200,496.3496 C185,496.3496 185,469.2832 170,469.2832 L160,469.2832 " fill="none" style="stroke: #A80036; stroke-width: 1.0;"/><rect fill="#FEFECE" filter="url(#f1fgd54aunbe3d)" height="34.1328" rx="12.5" ry="12.5" style="stroke: #A80036; stroke-width: 1.5;" width="59" x="101" y="506.3496"/><text fill="#000000" font-family="sans-serif" font-size="12" lengthAdjust="spacingAndGlyphs" textLength="39" x="111" y="527.9512">Bakery</text><path d="M210,496.3496 L200,496.3496 C185,496.3496 185,523.416 170,523.416 L160,523.416 " fill="none" style="stroke: #A80036; stroke-width: 1.0;"/><rect fill="#FEFECE" filter="url(#f1fgd54aunbe3d)" height="34.1328" rx="12.5" ry="12.5" style="stroke: #A80036; stroke-width: 1.5;" width="101" x="59" y="560.4824"/><text fill="#000000" font-family="sans-serif" font-size="12" lengthAdjust="spacingAndGlyphs" textLength="81" x="69" y="582.084">Meal Solutions</text><path d="M210,496.3496 L200,496.3496 C185,496.3496 185,577.5488 170,577.5488 L160,577.5488 " fill="none" style="stroke: #A80036; stroke-width: 1.0;"/><rect fill="#FEFECE" filter="url(#f1fgd54aunbe3d)" height="34.1328" rx="12.5" ry="12.5" style="stroke: #A80036; stroke-width: 1.5;" width="43" x="117" y="614.6152"/><text fill="#000000" font-family="sans-serif" font-size="12" lengthAdjust="spacingAndGlyphs" textLength="23" x="127" y="636.2168">MFP</text><path d="M210,496.3496 L200,496.3496 C185,496.3496 185,631.6816 170,631.6816 L160,631.6816 " fill="none" style="stroke: #A80036; stroke-width: 1.0;"/><rect fill="#FEFECE" filter="url(#f1fgd54aunbe3d)" height="34.1328" rx="12.5" ry="12.5" style="stroke: #A80036; stroke-width: 1.5;" width="116" x="44" y="668.748"/><text fill="#000000" font-family="sans-serif" font-size="12" lengthAdjust="spacingAndGlyphs" textLength="96" x="54" y="690.3496">Home &amp; Lifestyle</text><path d="M210,496.3496 L200,496.3496 C185,496.3496 185,685.8145 170,685.8145 L160,685.8145 " fill="none" style="stroke: #A80036; stroke-width: 1.0;"/><rect fill="#FEFECE" filter="url(#f1fgd54aunbe3d)" height="34.1328" rx="12.5" ry="12.5" style="stroke: #A80036; stroke-width: 1.5;" width="122" x="38" y="722.8809"/><text fill="#000000" font-family="sans-serif" font-size="12" lengthAdjust="spacingAndGlyphs" textLength="102" x="48" y="744.4824">Veg, Salad &amp; Fruit</text><path d="M210,496.3496 L200,496.3496 C185,496.3496 185,739.9473 170,739.9473 L160,739.9473 " fill="none" style="stroke: #A80036; stroke-width: 1.0;"/><rect fill="#FEFECE" filter="url(#f1fgd54aunbe3d)" height="34.1328" rx="12.5" ry="12.5" style="stroke: #A80036; stroke-width: 1.5;" width="76" x="84" y="777.0137"/><text fill="#000000" font-family="sans-serif" font-size="12" lengthAdjust="spacingAndGlyphs" textLength="56" x="94" y="798.6152">Pharmacy</text><path d="M210,496.3496 L200,496.3496 C185,496.3496 185,794.0801 170,794.0801 L160,794.0801 " fill="none" style="stroke: #A80036; stroke-width: 1.0;"/><path d="M341,496.3496 L331,496.3496 C316,496.3496 316,496.3496 301,496.3496 L291,496.3496 " fill="none" style="stroke: #A80036; stroke-width: 1.0;"/><!--
--></g></svg>