<?xml version="1.0" encoding="UTF-8" standalone="no"?><svg xmlns="http://www.w3.org/2000/svg" xmlns:xlink="http://www.w3.org/1999/xlink" contentScriptType="application/ecmascript" contentStyleType="text/css" height="315px" preserveAspectRatio="none" style="width:1127px;height:315px;" version="1.1" viewBox="0 0 1127 315" width="1127px" zoomAndPan="magnify"><defs><filter height="300%" id="f10off5ameh33h" width="300%" x="-1" y="-1"><feGaussianBlur result="blurOut" stdDeviation="2.0"/><feColorMatrix in="blurOut" result="blurOut2" type="matrix" values="0 0 0 0 0 0 0 0 0 0 0 0 0 0 0 0 0 0 .4 0"/><feOffset dx="4.0" dy="4.0" in="blurOut2" result="blurOut3"/><feBlend in="SourceGraphic" in2="blurOut3" mode="normal"/></filter></defs><g><text fill="#888888" font-family="sans-serif" font-size="10" lengthAdjust="spacingAndGlyphs" textLength="95" x="921" y="19.668">Problem Focus V0.1</text><rect fill="#E6E6FA" height="28.8438" style="stroke: #00008B; stroke-width: 2.0;" width="460" x="282.5" y="23.7773"/><text fill="#000080" font-family="sans-serif" font-size="16" lengthAdjust="spacingAndGlyphs" textLength="444" x="290.5" y="44.2461">Purpose of Business Epics and Architectural Steel Thread</text><rect fill="#FEFECE" filter="url(#f10off5ameh33h)" height="34.1328" rx="12.5" ry="12.5" style="stroke: #A80036; stroke-width: 1.5;" width="122" x="665" y="168.0195"/><text fill="#000000" font-family="sans-serif" font-size="12" font-weight="bold" lengthAdjust="spacingAndGlyphs" textLength="102" x="675" y="189.6211">Problem at hand</text><rect fill="#FEFECE" filter="url(#f10off5ameh33h)" height="34.1328" rx="12.5" ry="12.5" style="stroke: #A80036; stroke-width: 1.5;" width="64" x="837" y="133.8867"/><text fill="#000000" font-family="sans-serif" font-size="12" lengthAdjust="spacingAndGlyphs" textLength="44" x="847" y="155.4883">Solution</text><rect fill="#FEFECE" filter="url(#f10off5ameh33h)" height="48.2656" rx="12.5" ry="12.5" style="stroke: #A80036; stroke-width: 1.5;" width="149" x="951" y="85.6211"/><text fill="#000000" font-family="sans-serif" font-size="12" lengthAdjust="spacingAndGlyphs" textLength="117" x="961" y="107.2227">Architetcure team to</text><text fill="#000000" font-family="sans-serif" font-size="12" lengthAdjust="spacingAndGlyphs" textLength="129" x="961" y="121.3555">identify Business Epics</text><path d="M901,150.9531 L911,150.9531 C926,150.9531 926,109.7539 941,109.7539 L951,109.7539 " fill="none" style="stroke: #A80036; stroke-width: 1.0;"/><rect fill="#FEFECE" filter="url(#f10off5ameh33h)" height="62.3984" rx="12.5" ry="12.5" style="stroke: #A80036; stroke-width: 1.5;" width="165" x="951" y="153.8867"/><text fill="#000000" font-family="sans-serif" font-size="12" lengthAdjust="spacingAndGlyphs" textLength="141" x="961" y="175.4883">Architetcural steelthread</text><text fill="#000000" font-family="sans-serif" font-size="12" lengthAdjust="spacingAndGlyphs" textLength="122" x="961" y="189.6211">to complete business</text><text fill="#000000" font-family="sans-serif" font-size="12" lengthAdjust="spacingAndGlyphs" textLength="30" x="961" y="203.7539">epics</text><path d="M901,150.9531 L911,150.9531 C926,150.9531 926,185.0859 941,185.0859 L951,185.0859 " fill="none" style="stroke: #A80036; stroke-width: 1.0;"/><path d="M787,185.0859 L797,185.0859 C812,185.0859 812,150.9531 827,150.9531 L837,150.9531 " fill="none" style="stroke: #A80036; stroke-width: 1.0;"/><rect fill="#FEFECE" filter="url(#f10off5ameh33h)" height="48.2656" rx="12.5" ry="12.5" style="stroke: #A80036; stroke-width: 1.5;" width="135" x="837" y="236.2852"/><text fill="#000000" font-family="sans-serif" font-size="12" lengthAdjust="spacingAndGlyphs" textLength="111" x="847" y="257.8867">Aligning teams with</text><text fill="#000000" font-family="sans-serif" font-size="12" lengthAdjust="spacingAndGlyphs" textLength="55" x="847" y="272.0195">approach</text><path d="M787,185.0859 L797,185.0859 C812,185.0859 812,260.418 827,260.418 L837,260.418 " fill="none" style="stroke: #A80036; stroke-width: 1.0;"/><rect fill="#FEFECE" filter="url(#f10off5ameh33h)" height="62.3984" rx="12.5" ry="12.5" style="stroke: #A80036; stroke-width: 1.5;" width="167" x="448" y="153.8867"/><text fill="#000000" font-family="sans-serif" font-size="12" lengthAdjust="spacingAndGlyphs" textLength="134" x="458" y="175.4883">Domain level scope not</text><text fill="#000000" font-family="sans-serif" font-size="12" lengthAdjust="spacingAndGlyphs" textLength="143" x="458" y="189.6211">completely understood -</text><text fill="#000000" font-family="sans-serif" font-size="12" lengthAdjust="spacingAndGlyphs" textLength="111" x="458" y="203.7539">What is the full pie?</text><rect fill="#FEFECE" filter="url(#f10off5ameh33h)" height="76.5313" rx="12.5" ry="12.5" style="stroke: #A80036; stroke-width: 1.5;" width="168" x="230" y="146.8203"/><text fill="#000000" font-family="sans-serif" font-size="12" lengthAdjust="spacingAndGlyphs" textLength="137" x="240" y="168.4219">Workstream level scope</text><text fill="#000000" font-family="sans-serif" font-size="12" lengthAdjust="spacingAndGlyphs" textLength="84" x="240" y="182.5547">not completely</text><text fill="#000000" font-family="sans-serif" font-size="12" lengthAdjust="spacingAndGlyphs" textLength="144" x="240" y="196.6875">understood - What is the</text><text fill="#000000" font-family="sans-serif" font-size="12" lengthAdjust="spacingAndGlyphs" textLength="96" x="240" y="210.8203">share of the pie?</text><rect fill="#FEFECE" filter="url(#f10off5ameh33h)" height="62.3984" rx="12.5" ry="12.5" style="stroke: #A80036; stroke-width: 1.5;" width="167" x="13" y="65.6211"/><text fill="#000000" font-family="sans-serif" font-size="12" lengthAdjust="spacingAndGlyphs" textLength="98" x="23" y="87.2227">Architectural and</text><text fill="#000000" font-family="sans-serif" font-size="12" lengthAdjust="spacingAndGlyphs" textLength="147" x="23" y="101.3555">Engineering oprtimization</text><text fill="#000000" font-family="sans-serif" font-size="12" lengthAdjust="spacingAndGlyphs" textLength="83" x="23" y="115.4883">not happening</text><path d="M230,185.0859 L220,185.0859 C205,185.0859 205,96.8203 190,96.8203 L180,96.8203 " fill="none" style="stroke: #A80036; stroke-width: 1.0;"/><rect fill="#FEFECE" filter="url(#f10off5ameh33h)" height="48.2656" rx="12.5" ry="12.5" style="stroke: #A80036; stroke-width: 1.5;" width="157" x="23" y="148.0195"/><text fill="#000000" font-family="sans-serif" font-size="12" lengthAdjust="spacingAndGlyphs" textLength="121" x="33" y="169.6211">Incremental business</text><text fill="#000000" font-family="sans-serif" font-size="12" lengthAdjust="spacingAndGlyphs" textLength="137" x="33" y="183.7539">value not demonstrated</text><path d="M230,185.0859 L220,185.0859 C205,185.0859 205,172.1523 190,172.1523 L180,172.1523 " fill="none" style="stroke: #A80036; stroke-width: 1.0;"/><rect fill="#FEFECE" filter="url(#f10off5ameh33h)" height="34.1328" rx="12.5" ry="12.5" style="stroke: #A80036; stroke-width: 1.5;" width="122" x="58" y="216.2852"/><text fill="#000000" font-family="sans-serif" font-size="12" lengthAdjust="spacingAndGlyphs" textLength="98" x="68" y="237.8867">Velocity not clear</text><path d="M230,185.0859 L220,185.0859 C205,185.0859 205,233.3516 190,233.3516 L180,233.3516 " fill="none" style="stroke: #A80036; stroke-width: 1.0;"/><rect fill="#FEFECE" filter="url(#f10off5ameh33h)" height="34.1328" rx="12.5" ry="12.5" style="stroke: #A80036; stroke-width: 1.5;" width="170" x="10" y="270.418"/><text fill="#000000" font-family="sans-serif" font-size="12" lengthAdjust="spacingAndGlyphs" textLength="150" x="20" y="292.0195">Velocity is not fast enough</text><path d="M230,185.0859 L220,185.0859 C205,185.0859 205,287.4844 190,287.4844 L180,287.4844 " fill="none" style="stroke: #A80036; stroke-width: 1.0;"/><path d="M448,185.0859 L438,185.0859 C423,185.0859 423,185.0859 408,185.0859 L398,185.0859 " fill="none" style="stroke: #A80036; stroke-width: 1.0;"/><path d="M665,185.0859 L655,185.0859 C640,185.0859 640,185.0859 625,185.0859 L615,185.0859 " fill="none" style="stroke: #A80036; stroke-width: 1.0;"/><!--
--></g></svg>