<?xml version="1.0" encoding="UTF-8" standalone="no"?><svg xmlns="http://www.w3.org/2000/svg" xmlns:xlink="http://www.w3.org/1999/xlink" contentScriptType="application/ecmascript" contentStyleType="text/css" height="297px" preserveAspectRatio="none" style="width:1410px;height:297px;" version="1.1" viewBox="0 0 1410 297" width="1410px" zoomAndPan="magnify"><defs><filter height="300%" id="f1d2j0qxw09kza" width="300%" x="-1" y="-1"><feGaussianBlur result="blurOut" stdDeviation="2.0"/><feColorMatrix in="blurOut" result="blurOut2" type="matrix" values="0 0 0 0 0 0 0 0 0 0 0 0 0 0 0 0 0 0 .4 0"/><feOffset dx="4.0" dy="4.0" in="blurOut2" result="blurOut3"/><feBlend in="SourceGraphic" in2="blurOut3" mode="normal"/></filter></defs><g><!--class tabProduct--><rect fill="#FEFECE" filter="url(#f1d2j0qxw09kza)" height="72.1758" id="tabProduct" style="stroke: #A80036; stroke-width: 1.5;" width="127" x="619" y="108"/><ellipse cx="640.75" cy="127.1328" fill="#FFAAAA" rx="11" ry="11" style="stroke: #A80036; stroke-width: 1.0;"/><path d="M641.5918,133.8828 L639.1431,133.8828 L639.1431,123.6313 L635.9971,123.6313 L635.9971,121.4897 L644.7378,121.4897 L644.7378,123.6313 L641.5918,123.6313 Z "/><text fill="#000000" font-family="sans-serif" font-size="12" lengthAdjust="spacingAndGlyphs" textLength="44" x="674.25" y="124.6016">Product</text><text fill="#000000" font-family="sans-serif" font-size="12" lengthAdjust="spacingAndGlyphs" textLength="80" x="656.25" y="138.7344">(Product in JS)</text><line style="stroke: #A80036; stroke-width: 1.5;" x1="620" x2="745" y1="146.2656" y2="146.2656"/><text fill="#000000" font-family="sans-serif" font-size="11" font-weight="bold" lengthAdjust="spacingAndGlyphs" textLength="112" x="625" y="160.9004">mediated_unique_id</text><text fill="#000000" font-family="sans-serif" font-size="11" lengthAdjust="spacingAndGlyphs" textLength="0" x="740" y="160.9004"/><text fill="#000000" font-family="sans-serif" font-size="11" lengthAdjust="spacingAndGlyphs" textLength="45" x="625" y="173.8555">INTEGER</text><!--class tabUnitVolumetric--><rect fill="#FEFECE" filter="url(#f1d2j0qxw09kza)" height="40" id="tabUnitVolumetric" style="stroke: #A80036; stroke-width: 1.5;" width="119" x="781" y="124"/><ellipse cx="796" cy="140" fill="#FFAAAA" rx="11" ry="11" style="stroke: #A80036; stroke-width: 1.0;"/><path d="M796.8418,146.75 L794.3931,146.75 L794.3931,136.4985 L791.2471,136.4985 L791.2471,134.3569 L799.9878,134.3569 L799.9878,136.4985 L796.8418,136.4985 Z "/><text fill="#000000" font-family="sans-serif" font-size="12" lengthAdjust="spacingAndGlyphs" textLength="87" x="810" y="144.5352">Unit Volumetric</text><line style="stroke: #A80036; stroke-width: 1.5;" x1="782" x2="899" y1="156" y2="156"/><!--class tabUnitDimensionsAndWeights--><rect fill="#FEFECE" filter="url(#f1d2j0qxw09kza)" height="40" id="tabUnitDimensionsAndWeights" style="stroke: #A80036; stroke-width: 1.5;" width="198" x="1201.5" y="8"/><ellipse cx="1216.5" cy="24" fill="#FFAAAA" rx="11" ry="11" style="stroke: #A80036; stroke-width: 1.0;"/><path d="M1217.3418,30.75 L1214.8931,30.75 L1214.8931,20.4985 L1211.7471,20.4985 L1211.7471,18.3569 L1220.4878,18.3569 L1220.4878,20.4985 L1217.3418,20.4985 Z "/><text fill="#000000" font-family="sans-serif" font-size="12" lengthAdjust="spacingAndGlyphs" textLength="166" x="1230.5" y="28.5352">Unit Dimensions and Weights</text><line style="stroke: #A80036; stroke-width: 1.5;" x1="1202.5" x2="1398.5" y1="40" y2="40"/><!--class tabProductIdentification--><rect fill="#FEFECE" filter="url(#f1d2j0qxw09kza)" height="46.2656" id="tabProductIdentification" style="stroke: #A80036; stroke-width: 1.5;" width="229" x="6" y="240"/><ellipse cx="21" cy="259.1328" fill="#FFAAAA" rx="11" ry="11" style="stroke: #A80036; stroke-width: 1.0;"/><path d="M21.8418,265.8828 L19.3931,265.8828 L19.3931,255.6313 L16.2471,255.6313 L16.2471,253.4897 L24.9878,253.4897 L24.9878,255.6313 L21.8418,255.6313 Z "/><text fill="#000000" font-family="sans-serif" font-size="12" lengthAdjust="spacingAndGlyphs" textLength="90" x="88.5" y="256.6016">Product Identity</text><text fill="#000000" font-family="sans-serif" font-size="12" lengthAdjust="spacingAndGlyphs" textLength="197" x="35" y="270.7344">(Uniquely identifying the products)</text><line style="stroke: #A80036; stroke-width: 1.5;" x1="7" x2="234" y1="278.2656" y2="278.2656"/><!--class tabProductBrand--><rect fill="#FEFECE" filter="url(#f1d2j0qxw09kza)" height="46.2656" id="tabProductBrand" style="stroke: #A80036; stroke-width: 1.5;" width="150" x="270.5" y="240"/><ellipse cx="285.5" cy="259.1328" fill="#FFAAAA" rx="11" ry="11" style="stroke: #A80036; stroke-width: 1.0;"/><path d="M286.3418,265.8828 L283.8931,265.8828 L283.8931,255.6313 L280.7471,255.6313 L280.7471,253.4897 L289.4878,253.4897 L289.4878,255.6313 L286.3418,255.6313 Z "/><text fill="#000000" font-family="sans-serif" font-size="12" lengthAdjust="spacingAndGlyphs" textLength="82" x="317.5" y="256.6016">Product Brand</text><text fill="#000000" font-family="sans-serif" font-size="12" lengthAdjust="spacingAndGlyphs" textLength="118" x="299.5" y="270.7344">(Product Brand in JS)</text><line style="stroke: #A80036; stroke-width: 1.5;" x1="271.5" x2="419.5" y1="278.2656" y2="278.2656"/><!--class tabProductSaleRestriction--><rect fill="#FEFECE" filter="url(#f1d2j0qxw09kza)" height="40" id="tabProductSaleRestriction" style="stroke: #A80036; stroke-width: 1.5;" width="119" x="1047" y="8"/><ellipse cx="1062" cy="24" fill="#FFAAAA" rx="11" ry="11" style="stroke: #A80036; stroke-width: 1.0;"/><path d="M1062.8418,30.75 L1060.3931,30.75 L1060.3931,20.4985 L1057.2471,20.4985 L1057.2471,18.3569 L1065.9878,18.3569 L1065.9878,20.4985 L1062.8418,20.4985 Z "/><text fill="#000000" font-family="sans-serif" font-size="12" lengthAdjust="spacingAndGlyphs" textLength="87" x="1076" y="28.5352">Sale Restriction</text><line style="stroke: #A80036; stroke-width: 1.5;" x1="1048" x2="1165" y1="40" y2="40"/><!--class tabSellingCharecteristic--><rect fill="#FEFECE" filter="url(#f1d2j0qxw09kza)" height="40" id="tabSellingCharecteristic" style="stroke: #A80036; stroke-width: 1.5;" width="150" x="861.5" y="8"/><ellipse cx="876.5" cy="24" fill="#FFAAAA" rx="11" ry="11" style="stroke: #A80036; stroke-width: 1.0;"/><path d="M877.3418,30.75 L874.8931,30.75 L874.8931,20.4985 L871.7471,20.4985 L871.7471,18.3569 L880.4878,18.3569 L880.4878,20.4985 L877.3418,20.4985 Z "/><text fill="#000000" font-family="sans-serif" font-size="12" lengthAdjust="spacingAndGlyphs" textLength="118" x="890.5" y="28.5352">Selling Characteristic</text><line style="stroke: #A80036; stroke-width: 1.5;" x1="862.5" x2="1010.5" y1="40" y2="40"/><!--class tabProductLifeSpan--><rect fill="#FEFECE" filter="url(#f1d2j0qxw09kza)" height="40" id="tabProductLifeSpan" style="stroke: #A80036; stroke-width: 1.5;" width="128" x="455.5" y="243"/><ellipse cx="470.5" cy="259" fill="#FFAAAA" rx="11" ry="11" style="stroke: #A80036; stroke-width: 1.0;"/><path d="M471.3418,265.75 L468.8931,265.75 L468.8931,255.4985 L465.7471,255.4985 L465.7471,253.3569 L474.4878,253.3569 L474.4878,255.4985 L471.3418,255.4985 Z "/><text fill="#000000" font-family="sans-serif" font-size="12" lengthAdjust="spacingAndGlyphs" textLength="96" x="484.5" y="263.5352">Product Lifespan</text><line style="stroke: #A80036; stroke-width: 1.5;" x1="456.5" x2="582.5" y1="275" y2="275"/><!--class tabSupplierProduct--><rect fill="#FEFECE" filter="url(#f1d2j0qxw09kza)" height="40" id="tabSupplierProduct" style="stroke: #A80036; stroke-width: 1.5;" width="127" x="619" y="243"/><ellipse cx="634" cy="259" fill="#FFAAAA" rx="11" ry="11" style="stroke: #A80036; stroke-width: 1.0;"/><path d="M634.8418,265.75 L632.3931,265.75 L632.3931,255.4985 L629.2471,255.4985 L629.2471,253.3569 L637.9878,253.3569 L637.9878,255.4985 L634.8418,255.4985 Z "/><text fill="#000000" font-family="sans-serif" font-size="12" lengthAdjust="spacingAndGlyphs" textLength="95" x="648" y="263.5352">Supplier Product</text><line style="stroke: #A80036; stroke-width: 1.5;" x1="620" x2="745" y1="275" y2="275"/><!--class tabProductQuality--><rect fill="#FEFECE" filter="url(#f1d2j0qxw09kza)" height="40" id="tabProductQuality" style="stroke: #A80036; stroke-width: 1.5;" width="119" x="51" y="8"/><ellipse cx="66" cy="24" fill="#FFAAAA" rx="11" ry="11" style="stroke: #A80036; stroke-width: 1.0;"/><path d="M66.8418,30.75 L64.3931,30.75 L64.3931,20.4985 L61.2471,20.4985 L61.2471,18.3569 L69.9878,18.3569 L69.9878,20.4985 L66.8418,20.4985 Z "/><text fill="#000000" font-family="sans-serif" font-size="12" lengthAdjust="spacingAndGlyphs" textLength="87" x="80" y="28.5352">Product Quality</text><line style="stroke: #A80036; stroke-width: 1.5;" x1="52" x2="169" y1="40" y2="40"/><!--class tabMultiPack--><rect fill="#FEFECE" filter="url(#f1d2j0qxw09kza)" height="40" id="tabMultiPack" style="stroke: #A80036; stroke-width: 1.5;" width="86" x="497.5" y="124"/><ellipse cx="512.5" cy="140" fill="#FFAAAA" rx="11" ry="11" style="stroke: #A80036; stroke-width: 1.0;"/><path d="M513.3418,146.75 L510.8931,146.75 L510.8931,136.4985 L507.7471,136.4985 L507.7471,134.3569 L516.4878,134.3569 L516.4878,136.4985 L513.3418,136.4985 Z "/><text fill="#000000" font-family="sans-serif" font-size="12" lengthAdjust="spacingAndGlyphs" textLength="54" x="526.5" y="144.5352">MultiPack</text><line style="stroke: #A80036; stroke-width: 1.5;" x1="498.5" x2="582.5" y1="156" y2="156"/><!--class tabLegislation--><rect fill="#FEFECE" filter="url(#f1d2j0qxw09kza)" height="40" id="tabLegislation" style="stroke: #A80036; stroke-width: 1.5;" width="140" x="394.5" y="8"/><ellipse cx="409.5" cy="24" fill="#FFAAAA" rx="11" ry="11" style="stroke: #A80036; stroke-width: 1.0;"/><path d="M410.3418,30.75 L407.8931,30.75 L407.8931,20.4985 L404.7471,20.4985 L404.7471,18.3569 L413.4878,18.3569 L413.4878,20.4985 L410.3418,20.4985 Z "/><text fill="#000000" font-family="sans-serif" font-size="12" lengthAdjust="spacingAndGlyphs" textLength="108" x="423.5" y="28.5352">Product Legislation</text><line style="stroke: #A80036; stroke-width: 1.5;" x1="395.5" x2="533.5" y1="40" y2="40"/><!--class tabPackage--><rect fill="#FEFECE" filter="url(#f1d2j0qxw09kza)" height="40" id="tabPackage" style="stroke: #A80036; stroke-width: 1.5;" width="80" x="569.5" y="8"/><ellipse cx="584.5" cy="24" fill="#FFAAAA" rx="11" ry="11" style="stroke: #A80036; stroke-width: 1.0;"/><path d="M585.3418,30.75 L582.8931,30.75 L582.8931,20.4985 L579.7471,20.4985 L579.7471,18.3569 L588.4878,18.3569 L588.4878,20.4985 L585.3418,20.4985 Z "/><text fill="#000000" font-family="sans-serif" font-size="12" lengthAdjust="spacingAndGlyphs" textLength="48" x="598.5" y="28.5352">Package</text><line style="stroke: #A80036; stroke-width: 1.5;" x1="570.5" x2="648.5" y1="40" y2="40"/><!--class tabSeasonPhase--><rect fill="#FEFECE" filter="url(#f1d2j0qxw09kza)" height="40" id="tabSeasonPhase" style="stroke: #A80036; stroke-width: 1.5;" width="110" x="781.5" y="243"/><ellipse cx="796.5" cy="259" fill="#FFAAAA" rx="11" ry="11" style="stroke: #A80036; stroke-width: 1.0;"/><path d="M797.3418,265.75 L794.8931,265.75 L794.8931,255.4985 L791.7471,255.4985 L791.7471,253.3569 L800.4878,253.3569 L800.4878,255.4985 L797.3418,255.4985 Z "/><text fill="#000000" font-family="sans-serif" font-size="12" lengthAdjust="spacingAndGlyphs" textLength="78" x="810.5" y="263.5352">Season Phase</text><line style="stroke: #A80036; stroke-width: 1.5;" x1="782.5" x2="890.5" y1="275" y2="275"/><!--class tabProductDocumentation--><rect fill="#FEFECE" filter="url(#f1d2j0qxw09kza)" height="40" id="tabProductDocumentation" style="stroke: #A80036; stroke-width: 1.5;" width="166" x="926.5" y="243"/><ellipse cx="941.5" cy="259" fill="#FFAAAA" rx="11" ry="11" style="stroke: #A80036; stroke-width: 1.0;"/><path d="M942.3418,265.75 L939.8931,265.75 L939.8931,255.4985 L936.7471,255.4985 L936.7471,253.3569 L945.4878,253.3569 L945.4878,255.4985 L942.3418,255.4985 Z "/><text fill="#000000" font-family="sans-serif" font-size="12" lengthAdjust="spacingAndGlyphs" textLength="134" x="955.5" y="263.5352">Product Documentation</text><line style="stroke: #A80036; stroke-width: 1.5;" x1="927.5" x2="1091.5" y1="275" y2="275"/><!--class tabProductClassification--><rect fill="#FEFECE" filter="url(#f1d2j0qxw09kza)" height="40" id="tabProductClassification" style="stroke: #A80036; stroke-width: 1.5;" width="154" x="205.5" y="8"/><ellipse cx="220.5" cy="24" fill="#FFAAAA" rx="11" ry="11" style="stroke: #A80036; stroke-width: 1.0;"/><path d="M221.3418,30.75 L218.8931,30.75 L218.8931,20.4985 L215.7471,20.4985 L215.7471,18.3569 L224.4878,18.3569 L224.4878,20.4985 L221.3418,20.4985 Z "/><text fill="#000000" font-family="sans-serif" font-size="12" lengthAdjust="spacingAndGlyphs" textLength="122" x="234.5" y="28.5352">Product Classification</text><line style="stroke: #A80036; stroke-width: 1.5;" x1="206.5" x2="358.5" y1="40" y2="40"/><!--class tabProductDecommision--><rect fill="#FEFECE" filter="url(#f1d2j0qxw09kza)" height="40" id="tabProductDecommision" style="stroke: #A80036; stroke-width: 1.5;" width="163" x="1128" y="243"/><ellipse cx="1143" cy="259" fill="#FFAAAA" rx="11" ry="11" style="stroke: #A80036; stroke-width: 1.0;"/><path d="M1143.8418,265.75 L1141.3931,265.75 L1141.3931,255.4985 L1138.2471,255.4985 L1138.2471,253.3569 L1146.9878,253.3569 L1146.9878,255.4985 L1143.8418,255.4985 Z "/><text fill="#000000" font-family="sans-serif" font-size="12" lengthAdjust="spacingAndGlyphs" textLength="131" x="1157" y="263.5352">Product Decommission</text><line style="stroke: #A80036; stroke-width: 1.5;" x1="1129" x2="1290" y1="275" y2="275"/><!--class tabProductSubstituition--><rect fill="#FEFECE" filter="url(#f1d2j0qxw09kza)" height="40" id="tabProductSubstituition" style="stroke: #A80036; stroke-width: 1.5;" width="142" x="684.5" y="8"/><ellipse cx="699.5" cy="24" fill="#FFAAAA" rx="11" ry="11" style="stroke: #A80036; stroke-width: 1.0;"/><path d="M700.3418,30.75 L697.8931,30.75 L697.8931,20.4985 L694.7471,20.4985 L694.7471,18.3569 L703.4878,18.3569 L703.4878,20.4985 L700.3418,20.4985 Z "/><text fill="#000000" font-family="sans-serif" font-size="12" lengthAdjust="spacingAndGlyphs" textLength="110" x="713.5" y="28.5352">Product Substituion</text><line style="stroke: #A80036; stroke-width: 1.5;" x1="685.5" x2="825.5" y1="40" y2="40"/><!--link tabProduct to tabProductIdentification--><path d="M618.5995,173.8117 C612.5517,176.0979 606.4554,178.2085 600.5,180 C450.2045,225.2124 407.1429,213.1961 252.5,240 C249.5168,240.5171 246.4957,241.041 243.4483,241.5698 " fill="none" id="tabProduct-tabProductIdentification" style="stroke: #A80036; stroke-width: 1.0;"/><line style="stroke: #A80036; stroke-width: 1.0;" x1="243.2104" x2="235.3283" y1="241.611" y2="250.8615"/><line style="stroke: #A80036; stroke-width: 1.0;" x1="243.2104" x2="235.3283" y1="241.611" y2="235.0973"/><line style="stroke: #A80036; stroke-width: 1.0;" x1="243.2104" x2="235.3283" y1="241.611" y2="242.9794"/><text fill="#000000" font-family="sans-serif" font-size="13" lengthAdjust="spacingAndGlyphs" textLength="8" x="603.1729" y="173.8278">1</text><text fill="#000000" font-family="sans-serif" font-size="13" lengthAdjust="spacingAndGlyphs" textLength="6" x="242.8767" y="238.7862">*</text><!--link tabProduct to tabSupplierProduct--><path d="M682.5,180.0269 C682.5,197.5029 682.5,218.1965 682.5,234.5458 " fill="none" id="tabProduct-tabSupplierProduct" style="stroke: #A80036; stroke-width: 1.0;"/><line style="stroke: #A80036; stroke-width: 1.0;" x1="682.5" x2="690.5" y1="234.6594" y2="242.6594"/><line style="stroke: #A80036; stroke-width: 1.0;" x1="682.5" x2="674.5" y1="234.6594" y2="242.6594"/><line style="stroke: #A80036; stroke-width: 1.0;" x1="682.5" x2="682.5" y1="234.6594" y2="242.6594"/><text fill="#000000" font-family="sans-serif" font-size="13" lengthAdjust="spacingAndGlyphs" textLength="8" x="673.7625" y="200.633">1</text><text fill="#000000" font-family="sans-serif" font-size="13" lengthAdjust="spacingAndGlyphs" textLength="6" x="675.6188" y="232.0952">*</text><!--link tabProduct to tabProductBrand--><path d="M618.7401,172.7211 C612.6083,175.2628 606.4565,177.7295 600.5,180 C543.8235,201.6042 478.7916,222.7153 428.587,238.2399 " fill="none" id="tabProduct-tabProductBrand" style="stroke: #A80036; stroke-width: 1.0;"/><line style="stroke: #A80036; stroke-width: 1.0;" x1="428.3055" x2="420.6603" y1="238.3266" y2="248.3279"/><line style="stroke: #A80036; stroke-width: 1.0;" x1="428.3055" x2="420.6603" y1="238.3266" y2="233.0375"/><line style="stroke: #A80036; stroke-width: 1.0;" x1="428.3055" x2="420.6603" y1="238.3266" y2="240.6827"/><text fill="#000000" font-family="sans-serif" font-size="13" lengthAdjust="spacingAndGlyphs" textLength="8" x="602.9054" y="189.4853">1</text><text fill="#000000" font-family="sans-serif" font-size="13" lengthAdjust="spacingAndGlyphs" textLength="6" x="428.7206" y="235.1785">*</text><!--link tabProduct to tabProductLifeSpan--><path d="M633.1523,180.0269 C607.5674,198.7054 576.948,221.0594 553.9403,237.8565 " fill="none" id="tabProduct-tabProductLifeSpan" style="stroke: #A80036; stroke-width: 1.0;"/><line style="stroke: #A80036; stroke-width: 1.0;" x1="553.8228" x2="552.0787" y1="237.9422" y2="242.6594"/><line style="stroke: #A80036; stroke-width: 1.0;" x1="553.8228" x2="542.6443" y1="237.9422" y2="242.6594"/><line style="stroke: #A80036; stroke-width: 1.0;" x1="553.8228" x2="547.3615" y1="237.9422" y2="242.6594"/><text fill="#000000" font-family="sans-serif" font-size="13" lengthAdjust="spacingAndGlyphs" textLength="8" x="615.3163" y="200.633">1</text><text fill="#000000" font-family="sans-serif" font-size="13" lengthAdjust="spacingAndGlyphs" textLength="6" x="548.6646" y="232.0952">*</text><!--link tabProduct to tabProductDecommision--><path d="M746.054,173.9902 C751.8841,176.209 757.7571,178.2567 763.5,180 C913.2625,225.4621 957.1012,208.9451 1110.5,240 C1113.5738,240.6223 1116.698,241.269 1119.8508,241.9338 " fill="none" id="tabProduct-tabProductDecommision" style="stroke: #A80036; stroke-width: 1.0;"/><line style="stroke: #A80036; stroke-width: 1.0;" x1="1119.911" x2="1127.7341" y1="241.9468" y2="235.7968"/><line style="stroke: #A80036; stroke-width: 1.0;" x1="1119.911" x2="1127.7341" y1="241.9468" y2="251.443"/><line style="stroke: #A80036; stroke-width: 1.0;" x1="1119.911" x2="1127.7341" y1="241.9468" y2="243.6199"/><text fill="#000000" font-family="sans-serif" font-size="13" lengthAdjust="spacingAndGlyphs" textLength="8" x="753.8649" y="190.9012">1</text><text fill="#000000" font-family="sans-serif" font-size="13" lengthAdjust="spacingAndGlyphs" textLength="6" x="1113.9197" y="238.7246">*</text><!--link tabProduct to tabSeasonPhase--><path d="M729.123,180.0269 C753.1915,198.6252 781.9757,220.8676 803.681,237.6399 " fill="none" id="tabProduct-tabSeasonPhase" style="stroke: #A80036; stroke-width: 1.0;"/><line style="stroke: #A80036; stroke-width: 1.0;" x1="803.8466" x2="815.0685" y1="237.7678" y2="242.6594"/><line style="stroke: #A80036; stroke-width: 1.0;" x1="803.8466" x2="805.2853" y1="237.7678" y2="242.6594"/><line style="stroke: #A80036; stroke-width: 1.0;" x1="803.8466" x2="810.1769" y1="237.7678" y2="242.6594"/><text fill="#000000" font-family="sans-serif" font-size="13" lengthAdjust="spacingAndGlyphs" textLength="8" x="728.9816" y="200.633">1</text><text fill="#000000" font-family="sans-serif" font-size="13" lengthAdjust="spacingAndGlyphs" textLength="6" x="795.5632" y="232.0952">*</text><!--link tabProduct to tabProductDocumentation--><path d="M746.3801,173.048 C752.1407,175.468 757.9084,177.8196 763.5,180 C821.0996,202.4611 887.596,224.6802 936.9204,240.4687 " fill="none" id="tabProduct-tabProductDocumentation" style="stroke: #A80036; stroke-width: 1.0;"/><line style="stroke: #A80036; stroke-width: 1.0;" x1="937.0639" x2="947.1173" y1="240.5145" y2="242.9465"/><line style="stroke: #A80036; stroke-width: 1.0;" x1="937.0639" x2="942.2533" y1="240.5145" y2="242.9465"/><line style="stroke: #A80036; stroke-width: 1.0;" x1="937.0639" x2="944.6853" y1="240.5145" y2="242.9465"/><text fill="#000000" font-family="sans-serif" font-size="13" lengthAdjust="spacingAndGlyphs" textLength="8" x="753.8045" y="172.9805">1</text><text fill="#000000" font-family="sans-serif" font-size="13" lengthAdjust="spacingAndGlyphs" textLength="6" x="917.917" y="232.1242">*</text><!--link tabMultiPack to tabProduct--><path d="M591.9915,144 C600.9485,144 609.9056,144 618.8626,144 " fill="none" id="tabMultiPack-tabProduct" style="stroke: #A80036; stroke-width: 1.0;"/><line style="stroke: #A80036; stroke-width: 1.0;" x1="591.7656" x2="583.7656" y1="144" y2="152"/><line style="stroke: #A80036; stroke-width: 1.0;" x1="591.7656" x2="583.7656" y1="144" y2="136"/><line style="stroke: #A80036; stroke-width: 1.0;" x1="591.7656" x2="583.7656" y1="144" y2="144"/><text fill="#000000" font-family="sans-serif" font-size="13" lengthAdjust="spacingAndGlyphs" textLength="6" x="591.4283" y="140.3519">*</text><text fill="#000000" font-family="sans-serif" font-size="13" lengthAdjust="spacingAndGlyphs" textLength="8" x="603.042" y="157.4433">1</text><!--link tabProduct to tabUnitVolumetric--><path d="M746.0703,144 C754.9193,144 763.7682,144 772.6171,144 " fill="none" id="tabProduct-tabUnitVolumetric" style="stroke: #A80036; stroke-width: 1.0;"/><line style="stroke: #A80036; stroke-width: 1.0;" x1="772.7437" x2="780.7437" y1="144" y2="136"/><line style="stroke: #A80036; stroke-width: 1.0;" x1="772.7437" x2="780.7437" y1="144" y2="152"/><line style="stroke: #A80036; stroke-width: 1.0;" x1="772.7437" x2="780.7437" y1="144" y2="144"/><text fill="#000000" font-family="sans-serif" font-size="13" lengthAdjust="spacingAndGlyphs" textLength="8" x="753.8831" y="157.4433">1</text><text fill="#000000" font-family="sans-serif" font-size="13" lengthAdjust="spacingAndGlyphs" textLength="6" x="767.0953" y="140.6732">*</text><!--link tabUnitDimensionsAndWeights to tabProduct--><path d="M1193.1435,46.4697 C1189.8933,46.991 1186.673,47.5023 1183.5,48 C997.2163,77.222 944.7152,55.8789 763.5,108 C757.7322,109.6589 751.8419,111.6479 746.0002,113.8279 " fill="none" id="tabUnitDimensionsAndWeights-tabProduct" style="stroke: #A80036; stroke-width: 1.0;"/><line style="stroke: #A80036; stroke-width: 1.0;" x1="1193.3764" x2="1201.2738" y1="46.4321" y2="37.2578"/><line style="stroke: #A80036; stroke-width: 1.0;" x1="1193.3764" x2="1201.2738" y1="46.4321" y2="53.0526"/><line style="stroke: #A80036; stroke-width: 1.0;" x1="1193.3764" x2="1201.2738" y1="46.4321" y2="45.1552"/><text fill="#000000" font-family="sans-serif" font-size="13" lengthAdjust="spacingAndGlyphs" textLength="6" x="1187.4471" y="43.4747">*</text><text fill="#000000" font-family="sans-serif" font-size="13" lengthAdjust="spacingAndGlyphs" textLength="8" x="753.9909" y="101.29">1</text><!--link tabProductSaleRestriction to tabProduct--><path d="M1038.912,45.6868 C1035.7325,46.4774 1032.5829,47.2521 1029.5,48 C911.7235,76.5708 878.5387,69.8726 763.5,108 C757.8031,109.8881 751.9621,112.0365 746.153,114.322 " fill="none" id="tabProductSaleRestriction-tabProduct" style="stroke: #A80036; stroke-width: 1.0;"/><line style="stroke: #A80036; stroke-width: 1.0;" x1="1039.096" x2="1046.8557" y1="45.6408" y2="35.9351"/><line style="stroke: #A80036; stroke-width: 1.0;" x1="1039.096" x2="1046.8557" y1="45.6408" y2="51.4545"/><line style="stroke: #A80036; stroke-width: 1.0;" x1="1039.096" x2="1046.8557" y1="45.6408" y2="43.6948"/><text fill="#000000" font-family="sans-serif" font-size="13" lengthAdjust="spacingAndGlyphs" textLength="6" x="1032.8294" y="42.333">*</text><text fill="#000000" font-family="sans-serif" font-size="13" lengthAdjust="spacingAndGlyphs" textLength="8" x="753.9754" y="124.3338">1</text><!--link tabSellingCharecteristic to tabProduct--><path d="M885.2603,51.4008 C845.2153,69.6891 789.3317,95.2107 746.372,114.8301 " fill="none" id="tabSellingCharecteristic-tabProduct" style="stroke: #A80036; stroke-width: 1.0;"/><line style="stroke: #A80036; stroke-width: 1.0;" x1="885.2696" x2="889.2232" y1="51.3966" y2="48.0732"/><line style="stroke: #A80036; stroke-width: 1.0;" x1="885.2696" x2="895.87" y1="51.3966" y2="48.0732"/><line style="stroke: #A80036; stroke-width: 1.0;" x1="885.2696" x2="892.5466" y1="51.3966" y2="48.0732"/><text fill="#000000" font-family="sans-serif" font-size="13" lengthAdjust="spacingAndGlyphs" textLength="6" x="873.341" y="68.4402">*</text><text fill="#000000" font-family="sans-serif" font-size="13" lengthAdjust="spacingAndGlyphs" textLength="8" x="753.7955" y="108.3951">1</text><!--link tabProductSubstituition to tabProduct--><path d="M738.4624,55.0734 C728.6112,70.7275 716.0866,90.6295 705.3849,107.635 " fill="none" id="tabProductSubstituition-tabProduct" style="stroke: #A80036; stroke-width: 1.0;"/><line style="stroke: #A80036; stroke-width: 1.0;" x1="738.5234" x2="736.0136" y1="54.9765" y2="48.2057"/><line style="stroke: #A80036; stroke-width: 1.0;" x1="738.5234" x2="749.5552" y1="54.9765" y2="48.2057"/><line style="stroke: #A80036; stroke-width: 1.0;" x1="738.5234" x2="742.7844" y1="54.9765" y2="48.2057"/><text fill="#000000" font-family="sans-serif" font-size="13" lengthAdjust="spacingAndGlyphs" textLength="6" x="732.3644" y="68.61">*</text><text fill="#000000" font-family="sans-serif" font-size="13" lengthAdjust="spacingAndGlyphs" textLength="8" x="700.8668" y="97.1282">1</text><!--link tabPackage to tabProduct--><path d="M626.5376,55.0734 C636.3888,70.7275 648.9134,90.6295 659.6151,107.635 " fill="none" id="tabPackage-tabProduct" style="stroke: #A80036; stroke-width: 1.0;"/><line style="stroke: #A80036; stroke-width: 1.0;" x1="626.4766" x2="615.4448" y1="54.9765" y2="48.2057"/><line style="stroke: #A80036; stroke-width: 1.0;" x1="626.4766" x2="628.9864" y1="54.9765" y2="48.2057"/><line style="stroke: #A80036; stroke-width: 1.0;" x1="626.4766" x2="622.2156" y1="54.9765" y2="48.2057"/><text fill="#000000" font-family="sans-serif" font-size="13" lengthAdjust="spacingAndGlyphs" textLength="6" x="618.9481" y="68.61">*</text><text fill="#000000" font-family="sans-serif" font-size="13" lengthAdjust="spacingAndGlyphs" textLength="8" x="646.6582" y="97.1282">1</text><!--link tabLegislation to tabProduct--><path d="M509.8469,52.1296 C541.4279,68.9341 583.983,91.5781 618.9418,110.1801 " fill="none" id="tabLegislation-tabProduct" style="stroke: #A80036; stroke-width: 1.0;"/><line style="stroke: #A80036; stroke-width: 1.0;" x1="509.5351" x2="498.7147" y1="51.9637" y2="48.2057"/><line style="stroke: #A80036; stroke-width: 1.0;" x1="509.5351" x2="506.2307" y1="51.9637" y2="48.2057"/><line style="stroke: #A80036; stroke-width: 1.0;" x1="509.5351" x2="502.4727" y1="51.9637" y2="48.2057"/><text fill="#000000" font-family="sans-serif" font-size="13" lengthAdjust="spacingAndGlyphs" textLength="6" x="506.3088" y="68.61">*</text><text fill="#000000" font-family="sans-serif" font-size="13" lengthAdjust="spacingAndGlyphs" textLength="8" x="603.68" y="97.1775">1</text><!--link tabProductClassification to tabProduct--><path d="M367.8137,47.7615 C446.6928,66.3418 557.935,93.4169 600.5,108 C606.5304,110.0661 612.7325,112.3937 618.8967,114.8463 " fill="none" id="tabProductClassification-tabProduct" style="stroke: #A80036; stroke-width: 1.0;"/><line style="stroke: #A80036; stroke-width: 1.0;" x1="367.5928" x2="359.8053" y1="47.7097" y2="53.6656"/><line style="stroke: #A80036; stroke-width: 1.0;" x1="367.5928" x2="359.8053" y1="47.7097" y2="38.0906"/><line style="stroke: #A80036; stroke-width: 1.0;" x1="367.5928" x2="359.8053" y1="47.7097" y2="45.8781"/><text fill="#000000" font-family="sans-serif" font-size="13" lengthAdjust="spacingAndGlyphs" textLength="6" x="367.4594" y="44.4504">*</text><text fill="#000000" font-family="sans-serif" font-size="13" lengthAdjust="spacingAndGlyphs" textLength="8" x="603.0801" y="124.9187">1</text><!--link tabProductQuality to tabProduct--><path d="M178.0217,45.9854 C181.2189,46.6961 184.3904,47.3722 187.5,48 C369.3147,84.7037 422.1888,56.9229 600.5,108 C606.4786,109.7126 612.5909,111.7689 618.649,114.0197 " fill="none" id="tabProductQuality-tabProduct" style="stroke: #A80036; stroke-width: 1.0;"/><line style="stroke: #A80036; stroke-width: 1.0;" x1="177.8395" x2="170.042" y1="45.9437" y2="51.9527"/><line style="stroke: #A80036; stroke-width: 1.0;" x1="177.8395" x2="170.042" y1="45.9437" y2="36.3577"/><line style="stroke: #A80036; stroke-width: 1.0;" x1="177.8395" x2="170.042" y1="45.9437" y2="44.1552"/><text fill="#000000" font-family="sans-serif" font-size="13" lengthAdjust="spacingAndGlyphs" textLength="6" x="178.0552" y="42.8524">*</text><text fill="#000000" font-family="sans-serif" font-size="13" lengthAdjust="spacingAndGlyphs" textLength="8" x="602.8037" y="107.2622">1</text><!--
@startuml
hide methods
hide stereotypes
skinparam wrapWidth 150


class tabProduct as "Product\n(Product in JS)" << (T,#FFAAAA) >> {
  <b>mediated_unique_id</b> INTEGER
}

class tabUnitVolumetric as "Unit Volumetric" << (T,#FFAAAA) >>
class tabUnitDimensionsAndWeights as "Unit Dimensions and Weights" << (T,#FFAAAA) >>
class tabProductIdentification as "Product Identity\n(Uniquely identifying the products)" << (T,#FFAAAA) >>
class tabProductBrand as "Product Brand\n(Product Brand in JS)" << (T,#FFAAAA) >>
class tabProductSaleRestriction as "Sale Restriction" << (T,#FFAAAA) >>
class tabSellingCharecteristic as "Selling Characteristic" << (T,#FFAAAA) >>
class tabProductLifeSpan as "Product Lifespan" << (T,#FFAAAA) >>
class tabSupplierProduct as "Supplier Product" << (T,#FFAAAA) >>
class tabProductQuality as "Product Quality" << (T,#FFAAAA) >>
class tabMultiPack as "MultiPack" << (T,#FFAAAA) >>
class tabLegislation as "Product Legislation" << (T,#FFAAAA) >>
class tabPackage as "Package" << (T,#FFAAAA) >>
class tabSeasonPhase as "Season Phase" << (T,#FFAAAA) >>
class tabProductDocumentation as "Product Documentation" << (T,#FFAAAA) >>
class tabProductClassification as "Product Classification" << (T,#FFAAAA) >>
class tabProductDecommision as "Product Decommission" << (T,#FFAAAA) >>
class tabProductSubstituition as "Product Substituion" << (T,#FFAAAA) >>



tabProduct "1" - -DOWN{ "*" tabProductIdentification
tabProduct "1" - -DOWN{ "*" tabSupplierProduct
tabProduct "1" - -DOWN{ "*" tabProductBrand 
tabProduct "1" - -DOWN{ "*" tabProductLifeSpan
tabProduct "1" - -DOWN{ "*" tabProductDecommision
tabProduct "1" - -DOWN{ "*" tabSeasonPhase
tabProduct "1" - -DOWN{ "*" tabProductDocumentation
tabProduct "1" - -LEFT{ "*" tabMultiPack
tabProduct "1" - -RIGHT{ "*" tabUnitVolumetric
tabProduct "1" - -UP{ "*" tabUnitDimensionsAndWeights
tabProduct "1" - -UP{ "*" tabProductSaleRestriction
tabProduct "1" - -UP{ "*" tabSellingCharecteristic
tabProduct "1" - -UP{ "*" tabProductSubstituition
tabProduct "1" - -UP{ "*" tabPackage
tabProduct "1" - -UP{ "*" tabLegislation
tabProduct "1" - -UP{ "*" tabProductClassification
tabProduct "1" - -UP{ "*" tabProductQuality



@enduml

PlantUML version 1.2019.05(Sat Apr 20 17:45:36 BST 2019)
(GPL source distribution)
Java Runtime: Java(TM) SE Runtime Environment
JVM: Java HotSpot(TM) 64-Bit Server VM
Java Version: 1.8.0_211-b12
Operating System: Mac OS X
OS Version: 10.13.6
Default Encoding: UTF-8
Language: en
Country: US
--></g></svg>